<svg id="圖層_1" data-name="圖層 1" xmlns="http://www.w3.org/2000/svg" viewBox="0 0 292.02 94"><defs><style>.cls-1{fill:#444645;}.cls-2{fill:#4285f4;}.cls-3{fill:#db4437;}.cls-4{fill:#f4b400;}.cls-5{fill:#0f9d58;}</style></defs><title>Gootdle_logo</title><path class="cls-1" d="M45.7,48.59H70.63v2a41.07,41.07,0,0,1-1.61,12,25.56,25.56,0,0,1-5.27,9.06,27.33,27.33,0,0,1-21.37,9.45A29.37,29.37,0,0,1,20.7,72a30.32,30.32,0,0,1-9-22A30.22,30.22,0,0,1,20.86,27.7,30.41,30.41,0,0,1,43.2,18.52a30.55,30.55,0,0,1,13.21,2.89,38.11,38.11,0,0,1,11.52,9.37L61.45,37Q54,27.1,43.36,27.11a21.59,21.59,0,0,0-16,6.6A22,22,0,0,0,20.82,50a21.37,21.37,0,0,0,7.23,16.6q6.75,6.06,14.65,6.06a18.21,18.21,0,0,0,12.07-4.53,16.14,16.14,0,0,0,6-10.94h-15Z"/><path class="cls-2" d="M75.21,60.7a18.91,18.91,0,0,1,5.9-14,20.81,20.81,0,0,1,28.83,0A19.4,19.4,0,0,1,115.8,61a19.26,19.26,0,0,1-5.9,14.33,20.16,20.16,0,0,1-14.57,5.74A19.34,19.34,0,0,1,81,75.23,19.7,19.7,0,0,1,75.21,60.7Zm9,.16q0,5.7,3,9a11.85,11.85,0,0,0,16.49,0,12.53,12.53,0,0,0,3.08-8.87,12.52,12.52,0,0,0-3.08-8.86,11.7,11.7,0,0,0-16.41,0A12.24,12.24,0,0,0,84.2,60.86Z"/><path class="cls-3" d="M120.21,60.7a18.91,18.91,0,0,1,5.9-14,20.81,20.81,0,0,1,28.83,0A19.4,19.4,0,0,1,160.8,61a19.26,19.26,0,0,1-5.9,14.33,20.16,20.16,0,0,1-14.57,5.74A19.34,19.34,0,0,1,126,75.23,19.7,19.7,0,0,1,120.21,60.7Zm9,.16q0,5.7,3,9a11.85,11.85,0,0,0,16.49,0,12.53,12.53,0,0,0,3.08-8.87,12.52,12.52,0,0,0-3.08-8.86,11.7,11.7,0,0,0-16.41,0A12.24,12.24,0,0,0,129.2,60.86Z"/><path class="cls-4" d="M176.07,50.16V80h-8.79V50.16h-3.75V42h3.75V28h8.79V42h6.84v8.21Z"/><path class="cls-5" d="M214.06,14h8.82V80h-8.82V76a16.43,16.43,0,0,1-11.76,5.07,16.75,16.75,0,0,1-13-5.7,21.21,21.21,0,0,1-5.12-14.53,20.51,20.51,0,0,1,5.12-14.22A16.31,16.31,0,0,1,202.1,40.9q6.69,0,12,5.47ZM193.2,60.86a13.23,13.23,0,0,0,2.93,8.91,9.6,9.6,0,0,0,7.57,3.47,10.07,10.07,0,0,0,7.89-3.36,13,13,0,0,0,3-8.83,13,13,0,0,0-3-8.82,9.91,9.91,0,0,0-7.81-3.4,9.71,9.71,0,0,0-7.58,3.44A12.67,12.67,0,0,0,193.2,60.86Z"/><path class="cls-1" d="M239.8,14V80H231V14Z"/><path class="cls-1" d="M282.7,63.05H255.43a11.58,11.58,0,0,0,3.05,7.46,9.3,9.3,0,0,0,6.91,2.73,9,9,0,0,0,5.43-1.56,22.22,22.22,0,0,0,4.81-5.78L283.05,70a30.09,30.09,0,0,1-3.63,5,19.78,19.78,0,0,1-4.1,3.44,16.85,16.85,0,0,1-4.73,2,23.36,23.36,0,0,1-5.51.62q-8.52,0-13.67-5.47T246.25,61q0-9,5-14.61t13.36-5.51q8.4,0,13.28,5.35T282.74,61Zm-9-7.19q-1.85-7-8.87-7a9,9,0,0,0-3,.49,8.51,8.51,0,0,0-2.56,1.4,8.9,8.9,0,0,0-2,2.21A10.32,10.32,0,0,0,256,55.86Z"/></svg>