  0
SECTION
  2
HEADER
  9
$ACADVER
  1
AC1009
  9
$INSBASE
 10
0.0
 20
0.0
 30
0.0
  9
$EXTMIN
 10
0.0
 20
-36.6611943732104919
 30
0.0
  9
$EXTMAX
 10
2290.0
 20
206.0
 30
0.0
  9
$LIMMIN
 10
0.0
 20
0.0
  9
$LIMMAX
 10
12.0
 20
9.0
  9
$ORTHOMODE
 70
     0
  9
$REGENMODE
 70
     1
  9
$FILLMODE
 70
     1
  9
$QTEXTMODE
 70
     0
  9
$MIRRTEXT
 70
     0
  9
$DRAGMODE
 70
     2
  9
$LTSCALE
 40
1.0
  9
$OSMODE
 70
  2487
  9
$ATTMODE
 70
     1
  9
$TEXTSIZE
 40
0.2
  9
$TRACEWID
 40
0.05
  9
$TEXTSTYLE
  7
STANDARD
  9
$CLAYER
  8
0
  9
$CELTYPE
  6
CONTINUOUS
  9
$CECOLOR
 62
   256
  9
$DIMSCALE
 40
1.0
  9
$DIMASZ
 40
0.18
  9
$DIMEXO
 40
0.0625
  9
$DIMDLI
 40
0.38
  9
$DIMRND
 40
0.0
  9
$DIMDLE
 40
0.0
  9
$DIMEXE
 40
0.18
  9
$DIMTP
 40
0.0
  9
$DIMTM
 40
0.0
  9
$DIMTXT
 40
10.0
  9
$DIMCEN
 40
0.09
  9
$DIMTSZ
 40
0.0
  9
$DIMTOL
 70
     0
  9
$DIMLIM
 70
     0
  9
$DIMTIH
 70
     1
  9
$DIMTOH
 70
     1
  9
$DIMSE1
 70
     0
  9
$DIMSE2
 70
     0
  9
$DIMTAD
 70
     0
  9
$DIMZIN
 70
     0
  9
$DIMBLK
  1

  9
$DIMASO
 70
     1
  9
$DIMSHO
 70
     1
  9
$DIMPOST
  1
mm
  9
$DIMAPOST
  1

  9
$DIMALT
 70
     0
  9
$DIMALTD
 70
     2
  9
$DIMALTF
 40
25.3999999999999986
  9
$DIMLFAC
 40
1.0
  9
$DIMTOFL
 70
     0
  9
$DIMTVP
 40
0.0
  9
$DIMTIX
 70
     0
  9
$DIMSOXD
 70
     0
  9
$DIMSAH
 70
     0
  9
$DIMBLK1
  1

  9
$DIMBLK2
  1

  9
$DIMSTYLE
  2
STANDARD
  9
$DIMCLRD
 70
     0
  9
$DIMCLRE
 70
     0
  9
$DIMCLRT
 70
     0
  9
$DIMTFAC
 40
1.0
  9
$DIMGAP
 40
0.09
  9
$LUNITS
 70
     2
  9
$LUPREC
 70
     4
  9
$SKETCHINC
 40
0.1
  9
$FILLETRAD
 40
0.0
  9
$AUNITS
 70
     0
  9
$AUPREC
 70
     0
  9
$MENU
  1
.
  9
$ELEVATION
 40
0.0
  9
$PELEVATION
 40
0.0
  9
$THICKNESS
 40
0.0
  9
$LIMCHECK
 70
     0
  9
$BLIPMODE
 70
     0
  9
$CHAMFERA
 40
0.0
  9
$CHAMFERB
 40
0.0
  9
$SKPOLY
 70
     0
  9
$TDCREATE
 40
2460159.6507407408207655
  9
$TDUPDATE
 40
2460159.6692708330228925
  9
$TDINDWG
 40
0.0165393519
  9
$TDUSRTIMER
 40
0.0165393519
  9
$USRTIMER
 70
     1
  9
$ANGBASE
 50
0.0
  9
$ANGDIR
 70
     0
  9
$PDMODE
 70
     0
  9
$PDSIZE
 40
0.0
  9
$PLINEWID
 40
0.0
  9
$COORDS
 70
     1
  9
$SPLFRAME
 70
     0
  9
$SPLINETYPE
 70
     6
  9
$SPLINESEGS
 70
     8
  9
$ATTDIA
 70
     1
  9
$ATTREQ
 70
     1
  9
$HANDLING
 70
     1
  9
$HANDSEED
  5
F58
  9
$SURFTAB1
 70
     6
  9
$SURFTAB2
 70
     6
  9
$SURFTYPE
 70
     6
  9
$SURFU
 70
     6
  9
$SURFV
 70
     6
  9
$UCSNAME
  2

  9
$UCSORG
 10
0.0
 20
0.0
 30
0.0
  9
$UCSXDIR
 10
1.0
 20
0.0
 30
0.0
  9
$UCSYDIR
 10
0.0
 20
1.0
 30
0.0
  9
$PUCSNAME
  2

  9
$PUCSORG
 10
0.0
 20
0.0
 30
0.0
  9
$PUCSXDIR
 10
1.0
 20
0.0
 30
0.0
  9
$PUCSYDIR
 10
0.0
 20
1.0
 30
0.0
  9
$USERI1
 70
     0
  9
$USERI2
 70
     0
  9
$USERI3
 70
     0
  9
$USERI4
 70
     0
  9
$USERI5
 70
     0
  9
$USERR1
 40
0.0
  9
$USERR2
 40
0.0
  9
$USERR3
 40
0.0
  9
$USERR4
 40
0.0
  9
$USERR5
 40
0.0
  9
$WORLDVIEW
 70
     1
  9
$SHADEDGE
 70
     3
  9
$SHADEDIF
 70
    70
  9
$TILEMODE
 70
     1
  9
$MAXACTVP
 70
    64
  9
$PLIMCHECK
 70
     0
  9
$PEXTMIN
 10
1.0000000000000000E+20
 20
1.0000000000000000E+20
 30
1.0000000000000000E+20
  9
$PEXTMAX
 10
-1.0000000000000000E+20
 20
-1.0000000000000000E+20
 30
-1.0000000000000000E+20
  9
$PLIMMIN
 10
0.0
 20
0.0
  9
$PLIMMAX
 10
12.0
 20
9.0
  9
$UNITMODE
 70
     0
  9
$VISRETAIN
 70
     1
  9
$PLINEGEN
 70
     0
  9
$PSLTSCALE
 70
     1
  0
ENDSEC
  0
SECTION
  2
TABLES
  0
TABLE
  2
VPORT
 70
     1
  0
VPORT
  2
*ACTIVE
 70
     0
 10
0.0
 20
0.0
 11
1.0
 21
1.0
 12
1603.9264302812459846
 22
217.6795399012688108
 13
0.0
 23
0.0
 14
1.0
 24
1.0
 15
0.0
 25
0.0
 16
0.0
 26
0.0
 36
1.0
 17
0.0
 27
0.0
 37
0.0
 40
1274.3471861445530067
 41
2.670868347338935
 42
50.0
 43
0.0
 44
0.0
 50
0.0
 51
0.0
 71
     0
 72
   100
 73
     1
 74
     1
 75
     0
 76
     0
 77
     0
 78
     0
  0
ENDTAB
  0
TABLE
  2
LTYPE
 70
     1
  0
LTYPE
  2
CONTINUOUS
 70
     0
  3
______
 72
    65
 73
     0
 40
0.0
  0
ENDTAB
  0
TABLE
  2
LAYER
 70
    14
  0
LAYER
  2
0
 70
     0
 62
     7
  6
CONTINUOUS
  0
LAYER
  2
FRONT_OUTSIDECUTPATH
 70
     0
 62
     7
  6
CONTINUOUS
  0
LAYER
  2
FRONT_LABELLAYER
 70
     0
 62
     7
  6
CONTINUOUS
  0
LAYER
  2
LEFT_OUTSIDECUTPATH
 70
     0
 62
     7
  6
CONTINUOUS
  0
LAYER
  2
LEFT_LABELLAYER
 70
     0
 62
     7
  6
CONTINUOUS
  0
LAYER
  2
TOP_OUTSIDECUTPATH
 70
     0
 62
     7
  6
CONTINUOUS
  0
LAYER
  2
TOP_LABELLAYER
 70
     0
 62
     7
  6
CONTINUOUS
  0
LAYER
  2
BACK_OUTSIDECUTPATH
 70
     0
 62
     7
  6
CONTINUOUS
  0
LAYER
  2
BACK_LABELLAYER
 70
     0
 62
     7
  6
CONTINUOUS
  0
LAYER
  2
RIGHT_OUTSIDECUTPATH
 70
     0
 62
     7
  6
CONTINUOUS
  0
LAYER
  2
RIGHT_LABELLAYER
 70
     0
 62
     7
  6
CONTINUOUS
  0
LAYER
  2
BOTTOM_OUTSIDECUTPATH
 70
     0
 62
     7
  6
CONTINUOUS
  0
LAYER
  2
BOTTOM_LABELLAYER
 70
     0
 62
     7
  6
CONTINUOUS
  0
LAYER
  2
DEFPOINTS
 70
     0
 62
     7
  6
CONTINUOUS
  0
ENDTAB
  0
TABLE
  2
STYLE
 70
     2
  0
STYLE
  2
STANDARD
 70
     0
 40
0.0
 41
1.0
 50
0.0
 71
     0
 42
0.2
  3
txt
  4

  0
STYLE
  2
ANNOTATIVE
 70
     0
 40
0.0
 41
1.0
 50
0.0
 71
     0
 42
0.2
  3
txt
  4

  0
ENDTAB
  0
TABLE
  2
VIEW
 70
     0
  0
ENDTAB
  0
TABLE
  2
UCS
 70
     0
  0
ENDTAB
  0
TABLE
  2
APPID
 70
     8
  0
APPID
  2
ACAD
 70
     0
  0
APPID
  2
ACADANNOTATIVE
 70
     0
  0
APPID
  2
ACAD_NAV_VCDISPLAY
 70
     0
  0
APPID
  2
ACAD_EXEMPT_FROM_CAD_STANDARDS
 70
     0
  0
APPID
  2
ACAD_TC
 70
     0
  0
APPID
  2
ACAD_DSTYLE_DIMJAG
 70
     0
  0
APPID
  2
ACAD_DSTYLE_DIMTALN
 70
     0
  0
APPID
  2
ACAD_MLEADERVER
 70
     0
  0
ENDTAB
  0
TABLE
  2
DIMSTYLE
 70
     2
  0
DIMSTYLE
  2
STANDARD
 70
     0
  3

  4

  5

  6

  7

 40
1.0
 41
0.18
 42
0.0625
 43
0.38
 44
0.18
 45
0.0
 46
0.0
 47
0.0
 48
0.0
140
10.0
141
0.09
142
0.0
143
25.3999999999999986
144
1.0
145
0.0
146
1.0
147
0.09
 71
     0
 72
     0
 73
     1
 74
     1
 75
     0
 76
     0
 77
     0
 78
     0
170
     0
171
     2
172
     0
173
     0
174
     0
175
     0
176
     0
177
     0
178
     0
  0
DIMSTYLE
  2
ANNOTATIVE
 70
     0
  3

  4

  5

  6

  7

 40
1.0
 41
0.18
 42
0.0625
 43
0.38
 44
0.18
 45
0.0
 46
0.0
 47
0.0
 48
0.0
140
0.18
141
0.09
142
0.0
143
25.3999999999999986
144
1.0
145
0.0
146
1.0
147
0.09
 71
     0
 72
     0
 73
     1
 74
     1
 75
     0
 76
     0
 77
     0
 78
     0
170
     0
171
     2
172
     0
173
     0
174
     0
175
     0
176
     0
177
     0
178
     0
  0
ENDTAB
  0
ENDSEC
  0
SECTION
  2
BLOCKS
  0
BLOCK
  8
0
  2
$MODEL_SPACE
 70
     0
 10
0.0
 20
0.0
 30
0.0
  3
$MODEL_SPACE
  1

  0
ENDBLK
  5
E23
  8
0
  0
BLOCK
 67
     1
  8
0
  2
$PAPER_SPACE
 70
     0
 10
0.0
 20
0.0
 30
0.0
  3
$PAPER_SPACE
  1

  0
ENDBLK
  5
E1F
 67
     1
  8
0
  0
BLOCK
  8
0
  2
*D2
 70
     1
 10
0.0
 20
0.0
 30
0.0
  3
*D2
  1

  0
LINE
  5
D11
  8
0
  6
CONTINUOUS
 62
     0
 10
0.0000000000000954
 20
2.937499999999488
 30
0.0
 11
0.0000000000000933
 21
-31.8411943732104916
 31
0.0
  0
LINE
  5
D12
  8
0
  6
CONTINUOUS
 62
     0
 10
1120.0
 20
2.9375
 30
0.0
 11
1120.0
 21
-31.8411943732104916
 31
0.0
  0
LINE
  5
D13
  8
0
  6
CONTINUOUS
 62
     0
 10
0.1800000000000933
 20
-31.6611943732104884
 30
0.0
 11
517.4099999999999682
 21
-31.6611943732104884
 31
0.0
  0
LINE
  5
D14
  8
0
  6
CONTINUOUS
 62
     0
 10
1119.8199999999999363
 20
-31.6611943732104884
 30
0.0
 11
602.5900000000000318
 21
-31.6611943732104884
 31
0.0
  0
SOLID
  5
D15
  8
0
  6
CONTINUOUS
 62
     0
 10
0.1800000000000933
 20
-31.6311943732104908
 30
0.0
 11
0.1800000000000933
 21
-31.6911943732104895
 31
0.0
 12
0.0000000000000933
 22
-31.6611943732104884
 32
0.0
 13
0.0000000000000933
 23
-31.6611943732104884
 33
0.0
  0
SOLID
  5
D16
  8
0
  6
CONTINUOUS
 62
     0
 10
1119.8199999999999363
 20
-31.6311943732104908
 30
0.0
 11
1119.8199999999999363
 21
-31.6911943732104895
 31
0.0
 12
1120.0
 22
-31.6611943732104884
 32
0.0
 13
1120.0
 23
-31.6611943732104884
 33
0.0
  0
INSERT
  5
D17
  8
0
  6
CONTINUOUS
  2
*U3
 10
0.0
 20
0.0
 30
0.0
  0
POINT
  5
D18
  8
DEFPOINTS
  6
CONTINUOUS
 62
     0
 10
0.0000000000000954
 20
2.999999999999488
 30
0.0
  0
POINT
  5
D19
  8
DEFPOINTS
  6
CONTINUOUS
 62
     0
 10
1120.0
 20
3.0
 30
0.0
  0
POINT
  5
D1A
  8
DEFPOINTS
  6
CONTINUOUS
 62
     0
 10
1120.0
 20
-31.6611943732104884
 30
0.0
  0
ENDBLK
  5
D10
  8
0
  0
BLOCK
  8
0
  2
*U3
 70
     1
 10
0.0
 20
0.0
 30
0.0
  3
*U3
  1

  0
TEXT
  5
DB0
  8
0
  6
CONTINUOUS
 62
     0
 10
517.4999999999997726
 20
-36.6611943732104919
 30
0.0
 40
10.0
  1
1120.0000mm
  0
ENDBLK
  5
DB2
  8
0
  0
BLOCK
  8
0
  2
*D4
 70
     1
 10
0.0
 20
0.0
 30
0.0
  3
*D4
  1

  0
LINE
  5
E75
  8
0
  6
CONTINUOUS
 62
     0
 10
0.0000000000000954
 20
2.937499999999488
 30
0.0
 11
0.0000000000000933
 21
-31.8411943732104916
 31
0.0
  0
LINE
  5
E76
  8
0
  6
CONTINUOUS
 62
     0
 10
1120.0
 20
2.9375
 30
0.0
 11
1120.0
 21
-31.8411943732104916
 31
0.0
  0
LINE
  5
E77
  8
0
  6
CONTINUOUS
 62
     0
 10
0.1800000000000933
 20
-31.6611943732104884
 30
0.0
 11
527.4099999999998545
 21
-31.6611943732104884
 31
0.0
  0
LINE
  5
E78
  8
0
  6
CONTINUOUS
 62
     0
 10
1119.8199999999999363
 20
-31.6611943732104884
 30
0.0
 11
592.5900000000000318
 21
-31.6611943732104884
 31
0.0
  0
SOLID
  5
E79
  8
0
  6
CONTINUOUS
 62
     0
 10
0.1800000000000933
 20
-31.6311943732104908
 30
0.0
 11
0.1800000000000933
 21
-31.6911943732104895
 31
0.0
 12
0.0000000000000933
 22
-31.6611943732104884
 32
0.0
 13
0.0000000000000933
 23
-31.6611943732104884
 33
0.0
  0
SOLID
  5
E7A
  8
0
  6
CONTINUOUS
 62
     0
 10
1119.8199999999999363
 20
-31.6311943732104908
 30
0.0
 11
1119.8199999999999363
 21
-31.6911943732104895
 31
0.0
 12
1120.0
 22
-31.6611943732104884
 32
0.0
 13
1120.0
 23
-31.6611943732104884
 33
0.0
  0
INSERT
  5
E7B
  8
0
  6
CONTINUOUS
  2
*U6
 10
0.0
 20
0.0
 30
0.0
  0
POINT
  5
E7C
  8
DEFPOINTS
  6
CONTINUOUS
 62
     0
 10
0.0000000000000954
 20
2.999999999999488
 30
0.0
  0
POINT
  5
E7D
  8
DEFPOINTS
  6
CONTINUOUS
 62
     0
 10
1120.0
 20
3.0
 30
0.0
  0
POINT
  5
E7E
  8
DEFPOINTS
  6
CONTINUOUS
 62
     0
 10
1120.0
 20
-31.6611943732104884
 30
0.0
  0
ENDBLK
  5
E74
  8
0
  0
BLOCK
  8
0
  2
*D5
 70
     1
 10
0.0
 20
0.0
 30
0.0
  3
*D5
  1

  0
LINE
  5
F4D
  8
0
  6
CONTINUOUS
 62
     0
 10
0.0000000000000954
 20
2.937499999999488
 30
0.0
 11
0.0000000000000934
 21
-30.2406818246155815
 31
0.0
  0
LINE
  5
F4E
  8
0
  6
CONTINUOUS
 62
     0
 10
1120.0
 20
2.937499999999488
 30
0.0
 11
1120.0
 21
-30.2406818246155815
 31
0.0
  0
LINE
  5
F4F
  8
0
  6
CONTINUOUS
 62
     0
 10
0.1800000000000934
 20
-30.0606818246155889
 30
0.0
 11
517.4099999999999682
 21
-30.0606818246155889
 31
0.0
  0
LINE
  5
F50
  8
0
  6
CONTINUOUS
 62
     0
 10
1119.8199999999999363
 20
-30.0606818246155889
 30
0.0
 11
602.5900000000000318
 21
-30.0606818246155889
 31
0.0
  0
SOLID
  5
F51
  8
0
  6
CONTINUOUS
 62
     0
 10
0.1800000000000934
 20
-30.0306818246155913
 30
0.0
 11
0.1800000000000934
 21
-30.09068182461559
 31
0.0
 12
0.0000000000000934
 22
-30.0606818246155889
 32
0.0
 13
0.0000000000000934
 23
-30.0606818246155889
 33
0.0
  0
SOLID
  5
F52
  8
0
  6
CONTINUOUS
 62
     0
 10
1119.8199999999999363
 20
-30.0306818246155913
 30
0.0
 11
1119.8199999999999363
 21
-30.09068182461559
 31
0.0
 12
1120.0
 22
-30.0606818246155889
 32
0.0
 13
1120.0
 23
-30.0606818246155889
 33
0.0
  0
TEXT
  8
0
  40
10
  5
F57
  62
0
  72
0
  71
0
 10
540.000
 20
-47.7607
 30
0.00000
  1
1120.0000mm
  0
POINT
  5
F54
  8
DEFPOINTS
  6
CONTINUOUS
 62
     0
 10
0.0000000000000954
 20
2.999999999999488
 30
0.0
  0
POINT
  5
F55
  8
DEFPOINTS
  6
CONTINUOUS
 62
     0
 10
1120.0
 20
2.999999999999488
 30
0.0
  0
POINT
  5
F56
  8
DEFPOINTS
  6
CONTINUOUS
 62
     0
 10
1120.0
 20
-30.0606818246155889
 30
0.0
  0
ENDBLK
  5
EFB
  8
0
  0
BLOCK
  8
0
  2
*U6
 70
     1
 10
0.0
 20
0.0
 30
0.0
  3
*U6
  1

  0
TEXT
  5
F4A
  8
0
  6
CONTINUOUS
 62
     0
 10
527.5
 20
-36.6611943732104919
 30
0.0
 40
10.0
  1
1120.0000
  0
ENDBLK
  5
F4C
  8
0
  0
ENDSEC
  0
SECTION
  2
ENTITIES
  0
LINE
  5
195
  8
LEFT_OUTSIDECUTPATH
 10
1128.0
 20
103.0
 30
0.0
 11
1128.0
 21
90.5
 31
0.0
  0
LINE
  5
196
  8
LEFT_OUTSIDECUTPATH
 10
1128.0
 20
90.5
 30
0.0
 11
1123.0
 21
90.5
 31
0.0
  0
LINE
  5
197
  8
LEFT_OUTSIDECUTPATH
 10
1123.0
 20
90.5
 30
0.0
 11
1123.0
 21
80.1250000000000142
 31
0.0
  0
LINE
  5
198
  8
LEFT_OUTSIDECUTPATH
 10
1123.0
 20
80.1250000000000142
 30
0.0
 11
1127.25
 21
80.1250000000000142
 31
0.0
  0
LINE
  5
19A
  8
LEFT_OUTSIDECUTPATH
 10
1127.25
 20
78.0
 30
0.0
 11
1127.25
 21
78.0
 31
0.0
  0
LINE
  5
19B
  8
LEFT_OUTSIDECUTPATH
 10
1127.25
 20
80.1250000000000142
 30
0.0
 11
1127.25
 21
75.875
 31
0.0
  0
LINE
  5
19C
  8
LEFT_OUTSIDECUTPATH
 10
1127.25
 20
75.875
 30
0.0
 11
1123.0
 21
75.875
 31
0.0
  0
LINE
  5
19D
  8
LEFT_OUTSIDECUTPATH
 10
1123.0
 20
75.875
 30
0.0
 11
1123.0
 21
65.5
 31
0.0
  0
LINE
  5
19E
  8
LEFT_OUTSIDECUTPATH
 10
1123.0
 20
65.5
 30
0.0
 11
1128.0
 21
65.5
 31
0.0
  0
LINE
  5
19F
  8
LEFT_OUTSIDECUTPATH
 10
1128.0
 20
65.5
 30
0.0
 11
1128.0
 21
40.4999999999999929
 31
0.0
  0
LINE
  5
1A0
  8
LEFT_OUTSIDECUTPATH
 10
1128.0
 20
40.4999999999999929
 30
0.0
 11
1123.0
 21
40.4999999999999929
 31
0.0
  0
LINE
  5
1A1
  8
LEFT_OUTSIDECUTPATH
 10
1123.0
 20
40.4999999999999929
 30
0.0
 11
1123.0
 21
30.125
 31
0.0
  0
LINE
  5
1A2
  8
LEFT_OUTSIDECUTPATH
 10
1123.0
 20
30.125
 30
0.0
 11
1127.25
 21
30.125
 31
0.0
  0
LINE
  5
1A4
  8
LEFT_OUTSIDECUTPATH
 10
1127.25
 20
28.0
 30
0.0
 11
1127.25
 21
28.0
 31
0.0
  0
LINE
  5
1A5
  8
LEFT_OUTSIDECUTPATH
 10
1127.25
 20
30.125
 30
0.0
 11
1127.25
 21
25.875
 31
0.0
  0
LINE
  5
1A6
  8
LEFT_OUTSIDECUTPATH
 10
1127.25
 20
25.875
 30
0.0
 11
1123.0
 21
25.875
 31
0.0
  0
LINE
  5
1A7
  8
LEFT_OUTSIDECUTPATH
 10
1123.0
 20
25.875
 30
0.0
 11
1123.0
 21
15.5
 31
0.0
  0
LINE
  5
1A8
  8
LEFT_OUTSIDECUTPATH
 10
1123.0
 20
15.5
 30
0.0
 11
1128.0
 21
15.5
 31
0.0
  0
LINE
  5
1A9
  8
LEFT_OUTSIDECUTPATH
 10
1128.0
 20
15.5
 30
0.0
 11
1128.0
 21
3.0
 31
0.0
  0
LINE
  5
1AA
  8
LEFT_OUTSIDECUTPATH
 10
1128.0
 20
3.0
 30
0.0
 11
1138.875
 21
3.0
 31
0.0
  0
LINE
  5
1AB
  8
LEFT_OUTSIDECUTPATH
 10
1138.875
 20
3.0
 30
0.0
 11
1138.875
 21
8.0
 31
0.0
  0
LINE
  5
1AC
  8
LEFT_OUTSIDECUTPATH
 10
1138.875
 20
8.0
 30
0.0
 11
1142.875
 21
8.0
 31
0.0
  0
LINE
  5
1B8
  8
LEFT_OUTSIDECUTPATH
 10
1147.125
 20
8.0
 30
0.0
 11
1151.125
 21
8.0
 31
0.0
  0
LINE
  5
1B9
  8
LEFT_OUTSIDECUTPATH
 10
1151.125
 20
8.0
 30
0.0
 11
1151.125
 21
3.0
 31
0.0
  0
LINE
  5
1BA
  8
LEFT_OUTSIDECUTPATH
 10
1151.125
 20
3.0
 30
0.0
 11
1162.0
 21
3.0
 31
0.0
  0
LINE
  5
1BB
  8
LEFT_OUTSIDECUTPATH
 10
1162.0
 20
3.0
 30
0.0
 11
1162.0
 21
15.5
 31
0.0
  0
LINE
  5
1BC
  8
LEFT_OUTSIDECUTPATH
 10
1162.0
 20
15.5
 30
0.0
 11
1167.0
 21
15.5
 31
0.0
  0
LINE
  5
1BD
  8
LEFT_OUTSIDECUTPATH
 10
1167.0
 20
15.5
 30
0.0
 11
1167.0
 21
25.875
 31
0.0
  0
LINE
  5
1BE
  8
LEFT_OUTSIDECUTPATH
 10
1167.0
 20
25.875
 30
0.0
 11
1162.75
 21
25.875
 31
0.0
  0
LINE
  5
1BF
  8
LEFT_OUTSIDECUTPATH
 10
1162.75
 20
25.875
 30
0.0
 11
1162.75
 21
30.125
 31
0.0
  0
LINE
  5
1C0
  8
LEFT_OUTSIDECUTPATH
 10
1162.75
 20
28.0
 30
0.0
 11
1162.75
 21
28.0
 31
0.0
  0
LINE
  5
1C2
  8
LEFT_OUTSIDECUTPATH
 10
1162.75
 20
30.125
 30
0.0
 11
1167.0
 21
30.125
 31
0.0
  0
LINE
  5
1C3
  8
LEFT_OUTSIDECUTPATH
 10
1167.0
 20
30.125
 30
0.0
 11
1167.0
 21
40.4999999999999929
 31
0.0
  0
LINE
  5
1C4
  8
LEFT_OUTSIDECUTPATH
 10
1167.0
 20
40.4999999999999929
 30
0.0
 11
1162.0
 21
40.4999999999999929
 31
0.0
  0
LINE
  5
1C5
  8
LEFT_OUTSIDECUTPATH
 10
1162.0
 20
40.4999999999999929
 30
0.0
 11
1162.0
 21
65.5
 31
0.0
  0
LINE
  5
1C6
  8
LEFT_OUTSIDECUTPATH
 10
1162.0
 20
65.5
 30
0.0
 11
1167.0
 21
65.5
 31
0.0
  0
LINE
  5
1C7
  8
LEFT_OUTSIDECUTPATH
 10
1167.0
 20
65.5
 30
0.0
 11
1167.0
 21
75.875
 31
0.0
  0
LINE
  5
1C8
  8
LEFT_OUTSIDECUTPATH
 10
1167.0
 20
75.875
 30
0.0
 11
1162.75
 21
75.875
 31
0.0
  0
LINE
  5
1C9
  8
LEFT_OUTSIDECUTPATH
 10
1162.75
 20
75.875
 30
0.0
 11
1162.75
 21
80.1250000000000142
 31
0.0
  0
LINE
  5
1CA
  8
LEFT_OUTSIDECUTPATH
 10
1162.75
 20
78.0
 30
0.0
 11
1162.75
 21
78.0
 31
0.0
  0
LINE
  5
1CC
  8
LEFT_OUTSIDECUTPATH
 10
1162.75
 20
80.1250000000000142
 30
0.0
 11
1167.0
 21
80.1250000000000142
 31
0.0
  0
LINE
  5
1CD
  8
LEFT_OUTSIDECUTPATH
 10
1167.0
 20
80.1250000000000142
 30
0.0
 11
1167.0
 21
90.5
 31
0.0
  0
LINE
  5
1CE
  8
LEFT_OUTSIDECUTPATH
 10
1167.0
 20
90.5
 30
0.0
 11
1162.0
 21
90.5
 31
0.0
  0
LINE
  5
1CF
  8
LEFT_OUTSIDECUTPATH
 10
1162.0
 20
90.5
 30
0.0
 11
1162.0
 21
103.0
 31
0.0
  0
LINE
  5
257
  8
TOP_OUTSIDECUTPATH
 10
1235.0
 20
8.0
 30
0.0
 11
1310.0
 21
8.0
 31
0.0
  0
LINE
  5
258
  8
TOP_OUTSIDECUTPATH
 10
1310.0
 20
8.0
 30
0.0
 11
1310.0
 21
3.0
 31
0.0
  0
LINE
  5
259
  8
TOP_OUTSIDECUTPATH
 10
1310.0
 20
3.0
 30
0.0
 11
1447.875
 21
3.0
 31
0.0
  0
LINE
  5
25A
  8
TOP_OUTSIDECUTPATH
 10
1447.875
 20
3.0
 30
0.0
 11
1447.875
 21
7.25
 31
0.0
  0
LINE
  5
25B
  8
TOP_OUTSIDECUTPATH
 10
1447.875
 20
7.25
 30
0.0
 11
1452.125
 21
7.25
 31
0.0
  0
LINE
  5
25C
  8
TOP_OUTSIDECUTPATH
 10
1450.0
 20
7.25
 30
0.0
 11
1450.0
 21
7.25
 31
0.0
  0
LINE
  5
25E
  8
TOP_OUTSIDECUTPATH
 10
1452.125
 20
7.25
 30
0.0
 11
1452.125
 21
3.0
 31
0.0
  0
LINE
  5
25F
  8
TOP_OUTSIDECUTPATH
 10
1452.125
 20
3.0
 30
0.0
 11
1590.0
 21
3.0
 31
0.0
  0
LINE
  5
260
  8
TOP_OUTSIDECUTPATH
 10
1590.0
 20
3.0
 30
0.0
 11
1590.0
 21
8.0
 31
0.0
  0
LINE
  5
261
  8
TOP_OUTSIDECUTPATH
 10
1590.0
 20
8.0
 30
0.0
 11
1870.0
 21
8.0
 31
0.0
  0
LINE
  5
262
  8
TOP_OUTSIDECUTPATH
 10
1870.0
 20
8.0
 30
0.0
 11
1870.0
 21
3.0
 31
0.0
  0
LINE
  5
263
  8
TOP_OUTSIDECUTPATH
 10
1870.0
 20
3.0
 30
0.0
 11
2007.875
 21
3.0
 31
0.0
  0
LINE
  5
264
  8
TOP_OUTSIDECUTPATH
 10
2007.875
 20
3.0
 30
0.0
 11
2007.875
 21
7.25
 31
0.0
  0
LINE
  5
265
  8
TOP_OUTSIDECUTPATH
 10
2007.875
 20
7.25
 30
0.0
 11
2012.125
 21
7.25
 31
0.0
  0
LINE
  5
266
  8
TOP_OUTSIDECUTPATH
 10
2010.0
 20
7.25
 30
0.0
 11
2010.0
 21
7.25
 31
0.0
  0
LINE
  5
268
  8
TOP_OUTSIDECUTPATH
 10
2012.125
 20
7.25
 30
0.0
 11
2012.125
 21
3.0
 31
0.0
  0
LINE
  5
269
  8
TOP_OUTSIDECUTPATH
 10
2012.125
 20
3.0
 30
0.0
 11
2150.0
 21
3.0
 31
0.0
  0
LINE
  5
26A
  8
TOP_OUTSIDECUTPATH
 10
2150.0
 20
3.0
 30
0.0
 11
2150.0
 21
8.0
 31
0.0
  0
LINE
  5
26B
  8
TOP_OUTSIDECUTPATH
 10
2150.0
 20
8.0
 30
0.0
 11
2225.0
 21
8.0
 31
0.0
  0
LINE
  5
277
  8
TOP_OUTSIDECUTPATH
 10
2225.0
 20
42.0
 30
0.0
 11
2150.0
 21
42.0
 31
0.0
  0
LINE
  5
278
  8
TOP_OUTSIDECUTPATH
 10
2150.0
 20
42.0
 30
0.0
 11
2150.0
 21
47.0
 31
0.0
  0
LINE
  5
279
  8
TOP_OUTSIDECUTPATH
 10
2150.0
 20
47.0
 30
0.0
 11
2012.125
 21
47.0
 31
0.0
  0
LINE
  5
27A
  8
TOP_OUTSIDECUTPATH
 10
2012.125
 20
47.0
 30
0.0
 11
2012.125
 21
42.75
 31
0.0
  0
LINE
  5
27C
  8
TOP_OUTSIDECUTPATH
 10
2010.0
 20
42.75
 30
0.0
 11
2010.0
 21
42.75
 31
0.0
  0
LINE
  5
27D
  8
TOP_OUTSIDECUTPATH
 10
2012.125
 20
42.75
 30
0.0
 11
2007.875
 21
42.75
 31
0.0
  0
LINE
  5
27E
  8
TOP_OUTSIDECUTPATH
 10
2007.875
 20
42.75
 30
0.0
 11
2007.875
 21
47.0
 31
0.0
  0
LINE
  5
27F
  8
TOP_OUTSIDECUTPATH
 10
2007.875
 20
47.0
 30
0.0
 11
1870.0
 21
47.0
 31
0.0
  0
LINE
  5
280
  8
TOP_OUTSIDECUTPATH
 10
1870.0
 20
47.0
 30
0.0
 11
1870.0
 21
42.0
 31
0.0
  0
LINE
  5
281
  8
TOP_OUTSIDECUTPATH
 10
1870.0
 20
42.0
 30
0.0
 11
1590.0
 21
42.0
 31
0.0
  0
LINE
  5
282
  8
TOP_OUTSIDECUTPATH
 10
1590.0
 20
42.0
 30
0.0
 11
1590.0
 21
47.0
 31
0.0
  0
LINE
  5
283
  8
TOP_OUTSIDECUTPATH
 10
1590.0
 20
47.0
 30
0.0
 11
1452.125
 21
47.0
 31
0.0
  0
LINE
  5
284
  8
TOP_OUTSIDECUTPATH
 10
1452.125
 20
47.0
 30
0.0
 11
1452.125
 21
42.75
 31
0.0
  0
LINE
  5
286
  8
TOP_OUTSIDECUTPATH
 10
1450.0
 20
42.75
 30
0.0
 11
1450.0
 21
42.75
 31
0.0
  0
LINE
  5
287
  8
TOP_OUTSIDECUTPATH
 10
1452.125
 20
42.75
 30
0.0
 11
1447.875
 21
42.75
 31
0.0
  0
LINE
  5
288
  8
TOP_OUTSIDECUTPATH
 10
1447.875
 20
42.75
 30
0.0
 11
1447.875
 21
47.0
 31
0.0
  0
LINE
  5
289
  8
TOP_OUTSIDECUTPATH
 10
1447.875
 20
47.0
 30
0.0
 11
1310.0
 21
47.0
 31
0.0
  0
LINE
  5
28A
  8
TOP_OUTSIDECUTPATH
 10
1310.0
 20
47.0
 30
0.0
 11
1310.0
 21
42.0
 31
0.0
  0
LINE
  5
28B
  8
TOP_OUTSIDECUTPATH
 10
1310.0
 20
42.0
 30
0.0
 11
1235.0
 21
42.0
 31
0.0
  0
LINE
  5
31C
  8
BACK_OUTSIDECUTPATH
 10
0.0
 20
168.5
 30
0.0
 11
0.0
 21
143.5
 31
0.0
  0
LINE
  5
31D
  8
BACK_OUTSIDECUTPATH
 10
0.0
 20
143.5
 30
0.0
 11
5.0
 21
143.5
 31
0.0
  0
LINE
  5
31E
  8
BACK_OUTSIDECUTPATH
 10
5.0
 20
143.5
 30
0.0
 11
5.0
 21
133.125
 31
0.0
  0
LINE
  5
32A
  8
BACK_OUTSIDECUTPATH
 10
5.0
 20
128.875
 30
0.0
 11
5.0
 21
118.5
 31
0.0
  0
LINE
  5
32B
  8
BACK_OUTSIDECUTPATH
 10
5.0
 20
118.5
 30
0.0
 11
0.0
 21
118.5
 31
0.0
  0
LINE
  5
32C
  8
BACK_OUTSIDECUTPATH
 10
0.0
 20
118.5
 30
0.0
 11
0.0
 21
106.0
 31
0.0
  0
LINE
  5
34E
  8
BACK_OUTSIDECUTPATH
 10
1120.0
 20
106.0
 30
0.0
 11
1120.0
 21
118.5
 31
0.0
  0
LINE
  5
34F
  8
BACK_OUTSIDECUTPATH
 10
1120.0
 20
118.5
 30
0.0
 11
1115.0
 21
118.5
 31
0.0
  0
LINE
  5
350
  8
BACK_OUTSIDECUTPATH
 10
1115.0
 20
118.5
 30
0.0
 11
1115.0
 21
128.875
 31
0.0
  0
LINE
  5
35C
  8
BACK_OUTSIDECUTPATH
 10
1115.0
 20
133.125
 30
0.0
 11
1115.0
 21
143.5
 31
0.0
  0
LINE
  5
35D
  8
BACK_OUTSIDECUTPATH
 10
1115.0
 20
143.5
 30
0.0
 11
1120.0
 21
143.5
 31
0.0
  0
LINE
  5
35E
  8
BACK_OUTSIDECUTPATH
 10
1120.0
 20
143.5
 30
0.0
 11
1120.0
 21
168.5
 31
0.0
  0
LINE
  5
43A
  8
RIGHT_OUTSIDECUTPATH
 10
1128.0
 20
206.0
 30
0.0
 11
1128.0
 21
193.5
 31
0.0
  0
LINE
  5
43B
  8
RIGHT_OUTSIDECUTPATH
 10
1128.0
 20
193.5
 30
0.0
 11
1123.0
 21
193.5
 31
0.0
  0
LINE
  5
43C
  8
RIGHT_OUTSIDECUTPATH
 10
1123.0
 20
193.5
 30
0.0
 11
1123.0
 21
183.125
 31
0.0
  0
LINE
  5
43D
  8
RIGHT_OUTSIDECUTPATH
 10
1123.0
 20
183.125
 30
0.0
 11
1127.25
 21
183.125
 31
0.0
  0
LINE
  5
43F
  8
RIGHT_OUTSIDECUTPATH
 10
1127.25
 20
181.0
 30
0.0
 11
1127.25
 21
181.0
 31
0.0
  0
LINE
  5
440
  8
RIGHT_OUTSIDECUTPATH
 10
1127.25
 20
183.125
 30
0.0
 11
1127.25
 21
178.875
 31
0.0
  0
LINE
  5
441
  8
RIGHT_OUTSIDECUTPATH
 10
1127.25
 20
178.875
 30
0.0
 11
1123.0
 21
178.875
 31
0.0
  0
LINE
  5
442
  8
RIGHT_OUTSIDECUTPATH
 10
1123.0
 20
178.875
 30
0.0
 11
1123.0
 21
168.5
 31
0.0
  0
LINE
  5
443
  8
RIGHT_OUTSIDECUTPATH
 10
1123.0
 20
168.5
 30
0.0
 11
1128.0
 21
168.5
 31
0.0
  0
LINE
  5
444
  8
RIGHT_OUTSIDECUTPATH
 10
1128.0
 20
168.5
 30
0.0
 11
1128.0
 21
143.5
 31
0.0
  0
LINE
  5
445
  8
RIGHT_OUTSIDECUTPATH
 10
1128.0
 20
143.5
 30
0.0
 11
1123.0
 21
143.5
 31
0.0
  0
LINE
  5
446
  8
RIGHT_OUTSIDECUTPATH
 10
1123.0
 20
143.5
 30
0.0
 11
1123.0
 21
133.125
 31
0.0
  0
LINE
  5
447
  8
RIGHT_OUTSIDECUTPATH
 10
1123.0
 20
133.125
 30
0.0
 11
1127.25
 21
133.125
 31
0.0
  0
LINE
  5
449
  8
RIGHT_OUTSIDECUTPATH
 10
1127.25
 20
131.0
 30
0.0
 11
1127.25
 21
131.0
 31
0.0
  0
LINE
  5
44A
  8
RIGHT_OUTSIDECUTPATH
 10
1127.25
 20
133.125
 30
0.0
 11
1127.25
 21
128.875
 31
0.0
  0
LINE
  5
44B
  8
RIGHT_OUTSIDECUTPATH
 10
1127.25
 20
128.875
 30
0.0
 11
1123.0
 21
128.875
 31
0.0
  0
LINE
  5
44C
  8
RIGHT_OUTSIDECUTPATH
 10
1123.0
 20
128.875
 30
0.0
 11
1123.0
 21
118.5
 31
0.0
  0
LINE
  5
44D
  8
RIGHT_OUTSIDECUTPATH
 10
1123.0
 20
118.5
 30
0.0
 11
1128.0
 21
118.5
 31
0.0
  0
LINE
  5
44E
  8
RIGHT_OUTSIDECUTPATH
 10
1128.0
 20
118.5
 30
0.0
 11
1128.0
 21
106.0
 31
0.0
  0
LINE
  5
44F
  8
RIGHT_OUTSIDECUTPATH
 10
1128.0
 20
106.0
 30
0.0
 11
1138.875
 21
106.0
 31
0.0
  0
LINE
  5
450
  8
RIGHT_OUTSIDECUTPATH
 10
1138.875
 20
106.0
 30
0.0
 11
1138.875
 21
111.0
 31
0.0
  0
LINE
  5
451
  8
RIGHT_OUTSIDECUTPATH
 10
1138.875
 20
111.0
 30
0.0
 11
1142.875
 21
111.0
 31
0.0
  0
LINE
  5
45D
  8
RIGHT_OUTSIDECUTPATH
 10
1147.125
 20
111.0
 30
0.0
 11
1151.125
 21
111.0
 31
0.0
  0
LINE
  5
45E
  8
RIGHT_OUTSIDECUTPATH
 10
1151.125
 20
111.0
 30
0.0
 11
1151.125
 21
106.0
 31
0.0
  0
LINE
  5
45F
  8
RIGHT_OUTSIDECUTPATH
 10
1151.125
 20
106.0
 30
0.0
 11
1162.0
 21
106.0
 31
0.0
  0
LINE
  5
460
  8
RIGHT_OUTSIDECUTPATH
 10
1162.0
 20
106.0
 30
0.0
 11
1162.0
 21
118.5
 31
0.0
  0
LINE
  5
461
  8
RIGHT_OUTSIDECUTPATH
 10
1162.0
 20
118.5
 30
0.0
 11
1167.0
 21
118.5
 31
0.0
  0
LINE
  5
462
  8
RIGHT_OUTSIDECUTPATH
 10
1167.0
 20
118.5
 30
0.0
 11
1167.0
 21
128.875
 31
0.0
  0
LINE
  5
463
  8
RIGHT_OUTSIDECUTPATH
 10
1167.0
 20
128.875
 30
0.0
 11
1162.75
 21
128.875
 31
0.0
  0
LINE
  5
464
  8
RIGHT_OUTSIDECUTPATH
 10
1162.75
 20
128.875
 30
0.0
 11
1162.75
 21
133.125
 31
0.0
  0
LINE
  5
465
  8
RIGHT_OUTSIDECUTPATH
 10
1162.75
 20
131.0
 30
0.0
 11
1162.75
 21
131.0
 31
0.0
  0
LINE
  5
467
  8
RIGHT_OUTSIDECUTPATH
 10
1162.75
 20
133.125
 30
0.0
 11
1167.0
 21
133.125
 31
0.0
  0
LINE
  5
468
  8
RIGHT_OUTSIDECUTPATH
 10
1167.0
 20
133.125
 30
0.0
 11
1167.0
 21
143.5
 31
0.0
  0
LINE
  5
469
  8
RIGHT_OUTSIDECUTPATH
 10
1167.0
 20
143.5
 30
0.0
 11
1162.0
 21
143.5
 31
0.0
  0
LINE
  5
46A
  8
RIGHT_OUTSIDECUTPATH
 10
1162.0
 20
143.5
 30
0.0
 11
1162.0
 21
168.5
 31
0.0
  0
LINE
  5
46B
  8
RIGHT_OUTSIDECUTPATH
 10
1162.0
 20
168.5
 30
0.0
 11
1167.0
 21
168.5
 31
0.0
  0
LINE
  5
46C
  8
RIGHT_OUTSIDECUTPATH
 10
1167.0
 20
168.5
 30
0.0
 11
1167.0
 21
178.875
 31
0.0
  0
LINE
  5
46D
  8
RIGHT_OUTSIDECUTPATH
 10
1167.0
 20
178.875
 30
0.0
 11
1162.75
 21
178.875
 31
0.0
  0
LINE
  5
46E
  8
RIGHT_OUTSIDECUTPATH
 10
1162.75
 20
178.875
 30
0.0
 11
1162.75
 21
183.125
 31
0.0
  0
LINE
  5
46F
  8
RIGHT_OUTSIDECUTPATH
 10
1162.75
 20
181.0
 30
0.0
 11
1162.75
 21
181.0
 31
0.0
  0
LINE
  5
471
  8
RIGHT_OUTSIDECUTPATH
 10
1162.75
 20
183.125
 30
0.0
 11
1167.0
 21
183.125
 31
0.0
  0
LINE
  5
472
  8
RIGHT_OUTSIDECUTPATH
 10
1167.0
 20
183.125
 30
0.0
 11
1167.0
 21
193.5
 31
0.0
  0
LINE
  5
473
  8
RIGHT_OUTSIDECUTPATH
 10
1167.0
 20
193.5
 30
0.0
 11
1162.0
 21
193.5
 31
0.0
  0
LINE
  5
474
  8
RIGHT_OUTSIDECUTPATH
 10
1162.0
 20
193.5
 30
0.0
 11
1162.0
 21
206.0
 31
0.0
  0
LINE
  5
563
  8
BOTTOM_OUTSIDECUTPATH
 10
1175.0
 20
89.0
 30
0.0
 11
1175.0
 21
78.125
 31
0.0
  0
LINE
  5
564
  8
BOTTOM_OUTSIDECUTPATH
 10
1175.0
 20
78.125
 30
0.0
 11
1170.0
 21
78.125
 31
0.0
  0
LINE
  5
565
  8
BOTTOM_OUTSIDECUTPATH
 10
1170.0
 20
78.125
 30
0.0
 11
1170.0
 21
74.125
 31
0.0
  0
LINE
  5
566
  8
BOTTOM_OUTSIDECUTPATH
 10
1170.0
 20
74.125
 30
0.0
 11
1174.25
 21
74.125
 31
0.0
  0
LINE
  5
568
  8
BOTTOM_OUTSIDECUTPATH
 10
1174.25
 20
72.0
 30
0.0
 11
1174.25
 21
72.0
 31
0.0
  0
LINE
  5
569
  8
BOTTOM_OUTSIDECUTPATH
 10
1174.25
 20
74.125
 30
0.0
 11
1174.25
 21
69.875
 31
0.0
  0
LINE
  5
56A
  8
BOTTOM_OUTSIDECUTPATH
 10
1174.25
 20
69.875
 30
0.0
 11
1170.0
 21
69.875
 31
0.0
  0
LINE
  5
56B
  8
BOTTOM_OUTSIDECUTPATH
 10
1170.0
 20
69.875
 30
0.0
 11
1170.0
 21
65.875
 31
0.0
  0
LINE
  5
56C
  8
BOTTOM_OUTSIDECUTPATH
 10
1170.0
 20
65.875
 30
0.0
 11
1175.0
 21
65.875
 31
0.0
  0
LINE
  5
56D
  8
BOTTOM_OUTSIDECUTPATH
 10
1175.0
 20
65.875
 30
0.0
 11
1175.0
 21
55.0
 31
0.0
  0
LINE
  5
56E
  8
BOTTOM_OUTSIDECUTPATH
 10
1175.0
 20
55.0
 30
0.0
 11
1310.0
 21
55.0
 31
0.0
  0
LINE
  5
56F
  8
BOTTOM_OUTSIDECUTPATH
 10
1310.0
 20
55.0
 30
0.0
 11
1310.0
 21
50.0
 31
0.0
  0
LINE
  5
570
  8
BOTTOM_OUTSIDECUTPATH
 10
1310.0
 20
50.0
 30
0.0
 11
1447.875
 21
50.0
 31
0.0
  0
LINE
  5
571
  8
BOTTOM_OUTSIDECUTPATH
 10
1447.875
 20
50.0
 30
0.0
 11
1447.875
 21
54.25
 31
0.0
  0
LINE
  5
572
  8
BOTTOM_OUTSIDECUTPATH
 10
1447.875
 20
54.25
 30
0.0
 11
1452.125
 21
54.25
 31
0.0
  0
LINE
  5
573
  8
BOTTOM_OUTSIDECUTPATH
 10
1450.0
 20
54.25
 30
0.0
 11
1450.0
 21
54.25
 31
0.0
  0
LINE
  5
575
  8
BOTTOM_OUTSIDECUTPATH
 10
1452.125
 20
54.25
 30
0.0
 11
1452.125
 21
50.0
 31
0.0
  0
LINE
  5
576
  8
BOTTOM_OUTSIDECUTPATH
 10
1452.125
 20
50.0
 30
0.0
 11
1590.0
 21
50.0
 31
0.0
  0
LINE
  5
577
  8
BOTTOM_OUTSIDECUTPATH
 10
1590.0
 20
50.0
 30
0.0
 11
1590.0
 21
55.0
 31
0.0
  0
LINE
  5
578
  8
BOTTOM_OUTSIDECUTPATH
 10
1590.0
 20
55.0
 30
0.0
 11
1870.0
 21
55.0
 31
0.0
  0
LINE
  5
579
  8
BOTTOM_OUTSIDECUTPATH
 10
1870.0
 20
55.0
 30
0.0
 11
1870.0
 21
50.0
 31
0.0
  0
LINE
  5
57A
  8
BOTTOM_OUTSIDECUTPATH
 10
1870.0
 20
50.0
 30
0.0
 11
2007.875
 21
50.0
 31
0.0
  0
LINE
  5
57B
  8
BOTTOM_OUTSIDECUTPATH
 10
2007.875
 20
50.0
 30
0.0
 11
2007.875
 21
54.25
 31
0.0
  0
LINE
  5
57C
  8
BOTTOM_OUTSIDECUTPATH
 10
2007.875
 20
54.25
 30
0.0
 11
2012.125
 21
54.25
 31
0.0
  0
LINE
  5
57D
  8
BOTTOM_OUTSIDECUTPATH
 10
2010.0
 20
54.25
 30
0.0
 11
2010.0
 21
54.25
 31
0.0
  0
LINE
  5
57F
  8
BOTTOM_OUTSIDECUTPATH
 10
2012.125
 20
54.25
 30
0.0
 11
2012.125
 21
50.0
 31
0.0
  0
LINE
  5
580
  8
BOTTOM_OUTSIDECUTPATH
 10
2012.125
 20
50.0
 30
0.0
 11
2150.0
 21
50.0
 31
0.0
  0
LINE
  5
581
  8
BOTTOM_OUTSIDECUTPATH
 10
2150.0
 20
50.0
 30
0.0
 11
2150.0
 21
55.0
 31
0.0
  0
LINE
  5
582
  8
BOTTOM_OUTSIDECUTPATH
 10
2150.0
 20
55.0
 30
0.0
 11
2285.0
 21
55.0
 31
0.0
  0
LINE
  5
583
  8
BOTTOM_OUTSIDECUTPATH
 10
2285.0
 20
55.0
 30
0.0
 11
2285.0
 21
65.875
 31
0.0
  0
LINE
  5
584
  8
BOTTOM_OUTSIDECUTPATH
 10
2285.0
 20
65.875
 30
0.0
 11
2290.0
 21
65.875
 31
0.0
  0
LINE
  5
585
  8
BOTTOM_OUTSIDECUTPATH
 10
2290.0
 20
65.875
 30
0.0
 11
2290.0
 21
69.875
 31
0.0
  0
LINE
  5
586
  8
BOTTOM_OUTSIDECUTPATH
 10
2290.0
 20
69.875
 30
0.0
 11
2285.75
 21
69.875
 31
0.0
  0
LINE
  5
587
  8
BOTTOM_OUTSIDECUTPATH
 10
2285.75
 20
69.875
 30
0.0
 11
2285.75
 21
74.125
 31
0.0
  0
LINE
  5
588
  8
BOTTOM_OUTSIDECUTPATH
 10
2285.75
 20
72.0
 30
0.0
 11
2285.75
 21
72.0
 31
0.0
  0
LINE
  5
58A
  8
BOTTOM_OUTSIDECUTPATH
 10
2285.75
 20
74.125
 30
0.0
 11
2290.0
 21
74.125
 31
0.0
  0
LINE
  5
58B
  8
BOTTOM_OUTSIDECUTPATH
 10
2290.0
 20
74.125
 30
0.0
 11
2290.0
 21
78.125
 31
0.0
  0
LINE
  5
58C
  8
BOTTOM_OUTSIDECUTPATH
 10
2290.0
 20
78.125
 30
0.0
 11
2285.0
 21
78.125
 31
0.0
  0
LINE
  5
58D
  8
BOTTOM_OUTSIDECUTPATH
 10
2285.0
 20
78.125
 30
0.0
 11
2285.0
 21
89.0
 31
0.0
  0
LINE
  5
58E
  8
BOTTOM_OUTSIDECUTPATH
 10
2285.0
 20
89.0
 30
0.0
 11
2150.0
 21
89.0
 31
0.0
  0
LINE
  5
58F
  8
BOTTOM_OUTSIDECUTPATH
 10
2150.0
 20
89.0
 30
0.0
 11
2150.0
 21
94.0
 31
0.0
  0
LINE
  5
590
  8
BOTTOM_OUTSIDECUTPATH
 10
2150.0
 20
94.0
 30
0.0
 11
2012.125
 21
94.0
 31
0.0
  0
LINE
  5
591
  8
BOTTOM_OUTSIDECUTPATH
 10
2012.125
 20
94.0
 30
0.0
 11
2012.125
 21
89.7499999999999858
 31
0.0
  0
LINE
  5
593
  8
BOTTOM_OUTSIDECUTPATH
 10
2010.0
 20
89.7499999999999858
 30
0.0
 11
2010.0
 21
89.7499999999999858
 31
0.0
  0
LINE
  5
594
  8
BOTTOM_OUTSIDECUTPATH
 10
2012.125
 20
89.7499999999999858
 30
0.0
 11
2007.875
 21
89.7499999999999858
 31
0.0
  0
LINE
  5
595
  8
BOTTOM_OUTSIDECUTPATH
 10
2007.875
 20
89.7499999999999858
 30
0.0
 11
2007.875
 21
94.0
 31
0.0
  0
LINE
  5
596
  8
BOTTOM_OUTSIDECUTPATH
 10
2007.875
 20
94.0
 30
0.0
 11
1870.0
 21
94.0
 31
0.0
  0
LINE
  5
597
  8
BOTTOM_OUTSIDECUTPATH
 10
1870.0
 20
94.0
 30
0.0
 11
1870.0
 21
89.0
 31
0.0
  0
LINE
  5
598
  8
BOTTOM_OUTSIDECUTPATH
 10
1870.0
 20
89.0
 30
0.0
 11
1590.0
 21
89.0
 31
0.0
  0
LINE
  5
599
  8
BOTTOM_OUTSIDECUTPATH
 10
1590.0
 20
89.0
 30
0.0
 11
1590.0
 21
94.0
 31
0.0
  0
LINE
  5
59A
  8
BOTTOM_OUTSIDECUTPATH
 10
1590.0
 20
94.0
 30
0.0
 11
1452.125
 21
94.0
 31
0.0
  0
LINE
  5
59B
  8
BOTTOM_OUTSIDECUTPATH
 10
1452.125
 20
94.0
 30
0.0
 11
1452.125
 21
89.7499999999999858
 31
0.0
  0
LINE
  5
59D
  8
BOTTOM_OUTSIDECUTPATH
 10
1450.0
 20
89.7499999999999858
 30
0.0
 11
1450.0
 21
89.7499999999999858
 31
0.0
  0
LINE
  5
59E
  8
BOTTOM_OUTSIDECUTPATH
 10
1452.125
 20
89.7499999999999858
 30
0.0
 11
1447.875
 21
89.7499999999999858
 31
0.0
  0
LINE
  5
59F
  8
BOTTOM_OUTSIDECUTPATH
 10
1447.875
 20
89.7499999999999858
 30
0.0
 11
1447.875
 21
94.0
 31
0.0
  0
LINE
  5
5A0
  8
BOTTOM_OUTSIDECUTPATH
 10
1447.875
 20
94.0
 30
0.0
 11
1310.0
 21
94.0
 31
0.0
  0
LINE
  5
5A1
  8
BOTTOM_OUTSIDECUTPATH
 10
1310.0
 20
94.0
 30
0.0
 11
1310.0
 21
89.0
 31
0.0
  0
LINE
  5
5A2
  8
BOTTOM_OUTSIDECUTPATH
 10
1310.0
 20
89.0
 30
0.0
 11
1175.0
 21
89.0
 31
0.0
  0
LINE
  5
9A8
  8
BACK_OUTSIDECUTPATH
 10
0.0
 20
106.0
 30
0.0
 11
93.3333333000000067
 21
106.0
 31
0.0
  0
LINE
  5
9A9
  8
BACK_OUTSIDECUTPATH
 10
93.3333333000000067
 20
106.0
 30
0.0
 11
93.3333333000000067
 21
111.0
 31
0.0
  0
LINE
  5
9AA
  8
BACK_OUTSIDECUTPATH
 10
93.3333333000000067
 20
111.0
 30
0.0
 11
184.5416667000000075
 21
111.0
 31
0.0
  0
LINE
  5
9B6
  8
BACK_OUTSIDECUTPATH
 10
188.7916667000000075
 20
111.0
 30
0.0
 11
280.0
 21
111.0
 31
0.0
  0
LINE
  5
9B7
  8
BACK_OUTSIDECUTPATH
 10
280.0
 20
111.0
 30
0.0
 11
280.0
 21
106.0
 31
0.0
  0
LINE
  5
9B8
  8
BACK_OUTSIDECUTPATH
 10
280.0
 20
106.0
 30
0.0
 11
466.6666666999998938
 21
106.0
 31
0.0
  0
LINE
  5
9B9
  8
BACK_OUTSIDECUTPATH
 10
466.6666666999998938
 20
106.0
 30
0.0
 11
466.6666666999998938
 21
111.0
 31
0.0
  0
LINE
  5
9BA
  8
BACK_OUTSIDECUTPATH
 10
466.6666666999998938
 20
111.0
 30
0.0
 11
557.875
 21
111.0
 31
0.0
  0
LINE
  5
9C6
  8
BACK_OUTSIDECUTPATH
 10
562.1249999999997726
 20
111.0
 30
0.0
 11
653.333333299999822
 21
111.0
 31
0.0
  0
LINE
  5
9C7
  8
BACK_OUTSIDECUTPATH
 10
653.333333299999822
 20
111.0
 30
0.0
 11
653.333333299999822
 21
106.0
 31
0.0
  0
LINE
  5
9C8
  8
BACK_OUTSIDECUTPATH
 10
653.333333299999822
 20
106.0
 30
0.0
 11
840.0
 21
106.0
 31
0.0
  0
LINE
  5
9C9
  8
BACK_OUTSIDECUTPATH
 10
840.0
 20
106.0
 30
0.0
 11
840.0
 21
111.0
 31
0.0
  0
LINE
  5
9CA
  8
BACK_OUTSIDECUTPATH
 10
840.0
 20
111.0
 30
0.0
 11
931.208333299999822
 21
111.0
 31
0.0
  0
LINE
  5
9D6
  8
BACK_OUTSIDECUTPATH
 10
935.4583332999999357
 20
111.0
 30
0.0
 11
1026.6666666999999507
 21
111.0
 31
0.0
  0
LINE
  5
9D7
  8
BACK_OUTSIDECUTPATH
 10
1026.6666666999999507
 20
111.0
 30
0.0
 11
1026.6666666999999507
 21
106.0
 31
0.0
  0
LINE
  5
9D8
  8
BACK_OUTSIDECUTPATH
 10
1026.6666666999999507
 20
106.0
 30
0.0
 11
1120.0
 21
106.0
 31
0.0
  0
LINE
  5
AD3
  8
BACK_OUTSIDECUTPATH
 10
8.7999999999999972
 20
133.125
 30
0.0
 11
8.7999999999999972
 21
134.625
 31
0.0
  0
LINE
  5
AD4
  8
BACK_OUTSIDECUTPATH
 10
8.7999999999999972
 20
134.625
 30
0.0
 11
12.25
 21
134.625
 31
0.0
  0
LINE
  5
AD7
  8
BACK_OUTSIDECUTPATH
 10
12.25
 20
134.625
 30
0.0
 11
12.25
 21
127.375
 31
0.0
  0
LINE
  5
AD8
  8
BACK_OUTSIDECUTPATH
 10
12.25
 20
127.375
 30
0.0
 11
8.7999999999999972
 21
127.375
 31
0.0
  0
LINE
  5
AD9
  8
BACK_OUTSIDECUTPATH
 10
8.7999999999999972
 20
127.375
 30
0.0
 11
8.7999999999999972
 21
128.875
 31
0.0
  0
LINE
  5
ADA
  8
0
  6
CONTINUOUS
 10
8.7999999999999972
 20
133.125
 30
0.0
 11
5.0
 21
133.125
 31
0.0
  0
LINE
  5
ADB
  8
0
  6
CONTINUOUS
 10
8.7999999999999972
 20
128.875
 30
0.0
 11
5.0
 21
128.875
 31
0.0
  0
LINE
  5
B41
  8
BACK_OUTSIDECUTPATH
 10
1111.2000000000000455
 20
128.875
 30
0.0
 11
1111.2000000000000455
 21
127.375
 31
0.0
  0
LINE
  5
B42
  8
BACK_OUTSIDECUTPATH
 10
1111.2000000000000455
 20
127.375
 30
0.0
 11
1107.75
 21
127.375
 31
0.0
  0
LINE
  5
B43
  8
BACK_OUTSIDECUTPATH
 10
1107.75
 20
127.375
 30
0.0
 11
1107.75
 21
134.625
 31
0.0
  0
LINE
  5
B46
  8
BACK_OUTSIDECUTPATH
 10
1107.75
 20
134.625
 30
0.0
 11
1111.2000000000000455
 21
134.625
 31
0.0
  0
LINE
  5
B47
  8
BACK_OUTSIDECUTPATH
 10
1111.2000000000000455
 20
134.625
 30
0.0
 11
1111.2000000000000455
 21
133.125
 31
0.0
  0
LINE
  5
B48
  8
0
  6
CONTINUOUS
 10
1111.2000000000000455
 20
128.875
 30
0.0
 11
1115.0
 21
128.875
 31
0.0
  0
LINE
  5
B49
  8
0
  6
CONTINUOUS
 10
1111.2000000000000455
 20
133.125
 30
0.0
 11
1115.0
 21
133.125
 31
0.0
  0
LINE
  5
B57
  8
BACK_OUTSIDECUTPATH
 10
931.208333299999822
 20
114.7999999999998977
 30
0.0
 11
929.708333299999822
 21
114.7999999999998977
 31
0.0
  0
LINE
  5
B58
  8
BACK_OUTSIDECUTPATH
 10
929.708333299999822
 20
114.7999999999998977
 30
0.0
 11
929.708333299999822
 21
118.25
 31
0.0
  0
LINE
  5
B59
  8
BACK_OUTSIDECUTPATH
 10
929.708333299999822
 20
118.25
 30
0.0
 11
936.9583332999997083
 21
118.25
 31
0.0
  0
LINE
  5
B5C
  8
BACK_OUTSIDECUTPATH
 10
936.9583332999997083
 20
118.25
 30
0.0
 11
936.9583332999997083
 21
114.7999999999998977
 31
0.0
  0
LINE
  5
B5D
  8
BACK_OUTSIDECUTPATH
 10
936.9583332999997083
 20
114.7999999999998977
 30
0.0
 11
935.4583332999999357
 21
114.7999999999998977
 31
0.0
  0
LINE
  5
B5E
  8
0
  6
CONTINUOUS
 10
931.208333299999822
 20
114.7999999999998977
 30
0.0
 11
931.208333299999822
 21
111.0
 31
0.0
  0
LINE
  5
B5F
  8
0
  6
CONTINUOUS
 10
935.4583332999999357
 20
114.7999999999998977
 30
0.0
 11
935.4583332999999357
 21
111.0
 31
0.0
  0
LINE
  5
B6D
  8
BACK_OUTSIDECUTPATH
 10
557.875
 20
114.7999999999998977
 30
0.0
 11
556.3749999999997726
 21
114.7999999999998977
 31
0.0
  0
LINE
  5
B6E
  8
BACK_OUTSIDECUTPATH
 10
556.3749999999997726
 20
114.7999999999998977
 30
0.0
 11
556.3749999999997726
 21
118.25
 31
0.0
  0
LINE
  5
B6F
  8
BACK_OUTSIDECUTPATH
 10
556.3749999999997726
 20
118.25
 30
0.0
 11
563.625
 21
118.25
 31
0.0
  0
LINE
  5
B72
  8
BACK_OUTSIDECUTPATH
 10
563.625
 20
118.25
 30
0.0
 11
563.625
 21
114.7999999999998977
 31
0.0
  0
LINE
  5
B73
  8
BACK_OUTSIDECUTPATH
 10
563.625
 20
114.7999999999998977
 30
0.0
 11
562.1249999999997726
 21
114.7999999999998977
 31
0.0
  0
LINE
  5
B74
  8
0
  6
CONTINUOUS
 10
557.875
 20
114.7999999999998977
 30
0.0
 11
557.875
 21
111.0
 31
0.0
  0
LINE
  5
B75
  8
0
  6
CONTINUOUS
 10
562.1249999999997726
 20
114.7999999999998977
 30
0.0
 11
562.1249999999997726
 21
111.0
 31
0.0
  0
LINE
  5
B83
  8
BACK_OUTSIDECUTPATH
 10
184.5416667000000075
 20
114.7999999999998977
 30
0.0
 11
183.0416666999998085
 21
114.7999999999998977
 31
0.0
  0
LINE
  5
B84
  8
BACK_OUTSIDECUTPATH
 10
183.0416666999998085
 20
114.7999999999998977
 30
0.0
 11
183.0416666999998085
 21
118.25
 31
0.0
  0
LINE
  5
B85
  8
BACK_OUTSIDECUTPATH
 10
183.0416666999998085
 20
118.25
 30
0.0
 11
190.2916666999998085
 21
118.25
 31
0.0
  0
LINE
  5
B88
  8
BACK_OUTSIDECUTPATH
 10
190.2916666999998085
 20
118.25
 30
0.0
 11
190.2916666999998085
 21
114.7999999999998977
 31
0.0
  0
LINE
  5
B89
  8
BACK_OUTSIDECUTPATH
 10
190.2916666999998085
 20
114.7999999999998977
 30
0.0
 11
188.7916667000000075
 21
114.7999999999998977
 31
0.0
  0
LINE
  5
B8A
  8
0
  6
CONTINUOUS
 10
184.5416667000000075
 20
114.7999999999998977
 30
0.0
 11
184.5416667000000075
 21
111.0
 31
0.0
  0
LINE
  5
B8B
  8
0
  6
CONTINUOUS
 10
188.7916667000000075
 20
114.7999999999998977
 30
0.0
 11
188.7916667000000075
 21
111.0
 31
0.0
  0
LINE
  5
B8F
  8
BACK_OUTSIDECUTPATH
 10
0.0
 20
168.5
 30
0.0
 11
5.0
 21
168.5
 31
0.0
  0
LINE
  5
B90
  8
BACK_OUTSIDECUTPATH
 10
5.0
 20
168.5
 30
0.0
 11
5.0
 21
178.875
 31
0.0
  0
LINE
  5
B91
  8
BACK_OUTSIDECUTPATH
 10
5.0
 20
183.125
 30
0.0
 11
5.0
 21
193.5
 31
0.0
  0
LINE
  5
B92
  8
BACK_OUTSIDECUTPATH
 10
5.0
 20
193.5
 30
0.0
 11
0.0
 21
193.5
 31
0.0
  0
LINE
  5
B93
  8
BACK_OUTSIDECUTPATH
 10
0.0
 20
193.5
 30
0.0
 11
0.0
 21
206.0
 31
0.0
  0
LINE
  5
B94
  8
BACK_OUTSIDECUTPATH
 10
1120.0
 20
206.0
 30
0.0
 11
1120.0
 21
193.5
 31
0.0
  0
LINE
  5
B95
  8
BACK_OUTSIDECUTPATH
 10
1120.0
 20
193.5
 30
0.0
 11
1115.0
 21
193.5
 31
0.0
  0
LINE
  5
B96
  8
BACK_OUTSIDECUTPATH
 10
1115.0
 20
193.5
 30
0.0
 11
1115.0
 21
183.125
 31
0.0
  0
LINE
  5
B97
  8
BACK_OUTSIDECUTPATH
 10
1115.0
 20
178.875
 30
0.0
 11
1115.0
 21
168.5
 31
0.0
  0
LINE
  5
B98
  8
BACK_OUTSIDECUTPATH
 10
1115.0
 20
168.5
 30
0.0
 11
1120.0
 21
168.5
 31
0.0
  0
LINE
  5
B9A
  8
BACK_OUTSIDECUTPATH
 10
0.0
 20
206.0
 30
0.0
 11
93.3333333000000067
 21
206.0
 31
0.0
  0
LINE
  5
B9B
  8
BACK_OUTSIDECUTPATH
 10
93.3333333000000067
 20
206.0
 30
0.0
 11
93.3333333000000067
 21
201.0
 31
0.0
  0
LINE
  5
B9C
  8
BACK_OUTSIDECUTPATH
 10
93.3333333000000067
 20
201.0
 30
0.0
 11
184.5416667000000075
 21
201.0
 31
0.0
  0
LINE
  5
B9D
  8
BACK_OUTSIDECUTPATH
 10
188.7916667000000075
 20
201.0
 30
0.0
 11
280.0
 21
201.0
 31
0.0
  0
LINE
  5
B9E
  8
BACK_OUTSIDECUTPATH
 10
280.0
 20
201.0
 30
0.0
 11
280.0
 21
206.0
 31
0.0
  0
LINE
  5
B9F
  8
BACK_OUTSIDECUTPATH
 10
280.0
 20
206.0
 30
0.0
 11
466.6666666999998938
 21
206.0
 31
0.0
  0
LINE
  5
BA0
  8
BACK_OUTSIDECUTPATH
 10
466.6666666999998938
 20
206.0
 30
0.0
 11
466.6666666999998938
 21
201.0
 31
0.0
  0
LINE
  5
BA1
  8
BACK_OUTSIDECUTPATH
 10
466.6666666999998938
 20
201.0
 30
0.0
 11
557.875
 21
201.0
 31
0.0
  0
LINE
  5
BA2
  8
BACK_OUTSIDECUTPATH
 10
562.1249999999997726
 20
201.0
 30
0.0
 11
653.333333299999822
 21
201.0
 31
0.0
  0
LINE
  5
BA3
  8
BACK_OUTSIDECUTPATH
 10
653.333333299999822
 20
201.0
 30
0.0
 11
653.333333299999822
 21
206.0
 31
0.0
  0
LINE
  5
BA4
  8
BACK_OUTSIDECUTPATH
 10
653.333333299999822
 20
206.0
 30
0.0
 11
840.0
 21
206.0
 31
0.0
  0
LINE
  5
BA5
  8
BACK_OUTSIDECUTPATH
 10
840.0
 20
206.0
 30
0.0
 11
840.0
 21
201.0
 31
0.0
  0
LINE
  5
BA6
  8
BACK_OUTSIDECUTPATH
 10
840.0
 20
201.0
 30
0.0
 11
931.208333299999822
 21
201.0
 31
0.0
  0
LINE
  5
BA7
  8
BACK_OUTSIDECUTPATH
 10
935.4583332999999357
 20
201.0
 30
0.0
 11
1026.6666666999999507
 21
201.0
 31
0.0
  0
LINE
  5
BA8
  8
BACK_OUTSIDECUTPATH
 10
1026.6666666999999507
 20
201.0
 30
0.0
 11
1026.6666666999999507
 21
206.0
 31
0.0
  0
LINE
  5
BA9
  8
BACK_OUTSIDECUTPATH
 10
1026.6666666999999507
 20
206.0
 30
0.0
 11
1120.0
 21
206.0
 31
0.0
  0
LINE
  5
BAA
  8
BACK_OUTSIDECUTPATH
 10
8.7999999999999972
 20
178.875
 30
0.0
 11
8.7999999999999972
 21
177.375
 31
0.0
  0
LINE
  5
BAB
  8
BACK_OUTSIDECUTPATH
 10
8.7999999999999972
 20
177.375
 30
0.0
 11
12.25
 21
177.375
 31
0.0
  0
LINE
  5
BAC
  8
BACK_OUTSIDECUTPATH
 10
12.25
 20
177.375
 30
0.0
 11
12.25
 21
184.625
 31
0.0
  0
LINE
  5
BAF
  8
BACK_OUTSIDECUTPATH
 10
12.25
 20
184.625
 30
0.0
 11
8.7999999999999972
 21
184.625
 31
0.0
  0
LINE
  5
BB0
  8
BACK_OUTSIDECUTPATH
 10
8.7999999999999972
 20
184.625
 30
0.0
 11
8.7999999999999972
 21
183.125
 31
0.0
  0
LINE
  5
BB1
  8
0
  6
CONTINUOUS
 10
8.7999999999999972
 20
178.875
 30
0.0
 11
5.0
 21
178.875
 31
0.0
  0
LINE
  5
BB2
  8
0
  6
CONTINUOUS
 10
8.7999999999999972
 20
183.125
 30
0.0
 11
5.0
 21
183.125
 31
0.0
  0
LINE
  5
BB3
  8
BACK_OUTSIDECUTPATH
 10
1111.2000000000000455
 20
183.125
 30
0.0
 11
1111.2000000000000455
 21
184.625
 31
0.0
  0
LINE
  5
BB4
  8
BACK_OUTSIDECUTPATH
 10
1111.2000000000000455
 20
184.625
 30
0.0
 11
1107.75
 21
184.625
 31
0.0
  0
LINE
  5
BB7
  8
BACK_OUTSIDECUTPATH
 10
1107.75
 20
184.625
 30
0.0
 11
1107.75
 21
177.375
 31
0.0
  0
LINE
  5
BB8
  8
BACK_OUTSIDECUTPATH
 10
1107.75
 20
177.375
 30
0.0
 11
1111.2000000000000455
 21
177.375
 31
0.0
  0
LINE
  5
BB9
  8
BACK_OUTSIDECUTPATH
 10
1111.2000000000000455
 20
177.375
 30
0.0
 11
1111.2000000000000455
 21
178.875
 31
0.0
  0
LINE
  5
BBA
  8
0
  6
CONTINUOUS
 10
1111.2000000000000455
 20
183.125
 30
0.0
 11
1115.0
 21
183.125
 31
0.0
  0
LINE
  5
BBB
  8
0
  6
CONTINUOUS
 10
1111.2000000000000455
 20
178.875
 30
0.0
 11
1115.0
 21
178.875
 31
0.0
  0
LINE
  5
BBC
  8
BACK_OUTSIDECUTPATH
 10
931.208333299999822
 20
197.1999999999999886
 30
0.0
 11
929.708333299999822
 21
197.1999999999999886
 31
0.0
  0
LINE
  5
BBD
  8
BACK_OUTSIDECUTPATH
 10
929.708333299999822
 20
197.1999999999999886
 30
0.0
 11
929.708333299999822
 21
193.75
 31
0.0
  0
LINE
  5
BBE
  8
BACK_OUTSIDECUTPATH
 10
929.708333299999822
 20
193.75
 30
0.0
 11
936.9583332999997083
 21
193.75
 31
0.0
  0
LINE
  5
BC1
  8
BACK_OUTSIDECUTPATH
 10
936.9583332999997083
 20
193.75
 30
0.0
 11
936.9583332999997083
 21
197.1999999999999886
 31
0.0
  0
LINE
  5
BC2
  8
BACK_OUTSIDECUTPATH
 10
936.9583332999997083
 20
197.1999999999999886
 30
0.0
 11
935.4583332999999357
 21
197.1999999999999886
 31
0.0
  0
LINE
  5
BC3
  8
0
  6
CONTINUOUS
 10
931.208333299999822
 20
197.1999999999999886
 30
0.0
 11
931.208333299999822
 21
201.0
 31
0.0
  0
LINE
  5
BC4
  8
0
  6
CONTINUOUS
 10
935.4583332999999357
 20
197.1999999999999886
 30
0.0
 11
935.4583332999999357
 21
201.0
 31
0.0
  0
LINE
  5
BC5
  8
BACK_OUTSIDECUTPATH
 10
557.875
 20
197.1999999999999886
 30
0.0
 11
556.3749999999997726
 21
197.1999999999999886
 31
0.0
  0
LINE
  5
BC6
  8
BACK_OUTSIDECUTPATH
 10
556.3749999999997726
 20
197.1999999999999886
 30
0.0
 11
556.3749999999997726
 21
193.75
 31
0.0
  0
LINE
  5
BC7
  8
BACK_OUTSIDECUTPATH
 10
556.3749999999997726
 20
193.75
 30
0.0
 11
563.625
 21
193.75
 31
0.0
  0
LINE
  5
BCA
  8
BACK_OUTSIDECUTPATH
 10
563.625
 20
193.75
 30
0.0
 11
563.625
 21
197.1999999999999886
 31
0.0
  0
LINE
  5
BCB
  8
BACK_OUTSIDECUTPATH
 10
563.625
 20
197.1999999999999886
 30
0.0
 11
562.1249999999997726
 21
197.1999999999999886
 31
0.0
  0
LINE
  5
BCC
  8
0
  6
CONTINUOUS
 10
557.875
 20
197.1999999999999886
 30
0.0
 11
557.875
 21
201.0
 31
0.0
  0
LINE
  5
BCD
  8
0
  6
CONTINUOUS
 10
562.1249999999997726
 20
197.1999999999999886
 30
0.0
 11
562.1249999999997726
 21
201.0
 31
0.0
  0
LINE
  5
BCE
  8
BACK_OUTSIDECUTPATH
 10
184.5416667000000075
 20
197.1999999999999886
 30
0.0
 11
183.0416666999998085
 21
197.1999999999999886
 31
0.0
  0
LINE
  5
BCF
  8
BACK_OUTSIDECUTPATH
 10
183.0416666999998085
 20
197.1999999999999886
 30
0.0
 11
183.0416666999998085
 21
193.75
 31
0.0
  0
LINE
  5
BD0
  8
BACK_OUTSIDECUTPATH
 10
183.0416666999998085
 20
193.75
 30
0.0
 11
190.2916666999998085
 21
193.75
 31
0.0
  0
LINE
  5
BD3
  8
BACK_OUTSIDECUTPATH
 10
190.2916666999998085
 20
193.75
 30
0.0
 11
190.2916666999998085
 21
197.1999999999999886
 31
0.0
  0
LINE
  5
BD4
  8
BACK_OUTSIDECUTPATH
 10
190.2916666999998085
 20
197.1999999999999886
 30
0.0
 11
188.7916667000000075
 21
197.1999999999999886
 31
0.0
  0
LINE
  5
BD5
  8
0
  6
CONTINUOUS
 10
184.5416667000000075
 20
197.1999999999999886
 30
0.0
 11
184.5416667000000075
 21
201.0
 31
0.0
  0
LINE
  5
BD6
  8
0
  6
CONTINUOUS
 10
188.7916667000000075
 20
197.1999999999999886
 30
0.0
 11
188.7916667000000075
 21
201.0
 31
0.0
  0
LINE
  5
BDD
  8
BACK_OUTSIDECUTPATH
 10
0.0000000000000665
 20
65.4999999999994884
 30
0.0
 11
5.0000000000000648
 21
65.4999999999994884
 31
0.0
  0
LINE
  5
BDE
  8
BACK_OUTSIDECUTPATH
 10
5.0000000000000648
 20
65.4999999999994884
 30
0.0
 11
5.0000000000000604
 21
75.8749999999994742
 31
0.0
  0
LINE
  5
BDF
  8
BACK_OUTSIDECUTPATH
 10
5.0000000000000577
 20
80.1249999999994884
 30
0.0
 11
5.0000000000000551
 21
90.4999999999994884
 31
0.0
  0
LINE
  5
BE0
  8
BACK_OUTSIDECUTPATH
 10
5.0000000000000551
 20
90.4999999999994884
 30
0.0
 11
0.0000000000000549
 21
90.4999999999994884
 31
0.0
  0
LINE
  5
BE1
  8
BACK_OUTSIDECUTPATH
 10
0.0000000000000549
 20
90.4999999999994884
 30
0.0
 11
0.0000000000000491
 21
102.9999999999995026
 31
0.0
  0
LINE
  5
BE2
  8
BACK_OUTSIDECUTPATH
 10
1120.0
 20
103.0
 30
0.0
 11
1120.0
 21
90.5
 31
0.0
  0
LINE
  5
BE3
  8
BACK_OUTSIDECUTPATH
 10
1120.0
 20
90.5
 30
0.0
 11
1115.0
 21
90.5
 31
0.0
  0
LINE
  5
BE4
  8
BACK_OUTSIDECUTPATH
 10
1115.0
 20
90.5
 30
0.0
 11
1115.0
 21
80.1250000000000142
 31
0.0
  0
LINE
  5
BE5
  8
BACK_OUTSIDECUTPATH
 10
1115.0
 20
75.875
 30
0.0
 11
1115.0
 21
65.5
 31
0.0
  0
LINE
  5
BE6
  8
BACK_OUTSIDECUTPATH
 10
1115.0
 20
65.5
 30
0.0
 11
1120.0
 21
65.5
 31
0.0
  0
LINE
  5
BE8
  8
BACK_OUTSIDECUTPATH
 10
0.0000000000000491
 20
102.9999999999995026
 30
0.0
 11
93.3333333000000209
 21
102.9999999999995026
 31
0.0
  0
LINE
  5
BE9
  8
BACK_OUTSIDECUTPATH
 10
93.3333333000000209
 20
102.9999999999995026
 30
0.0
 11
93.3333333000000493
 21
97.9999999999995453
 31
0.0
  0
LINE
  5
BEA
  8
BACK_OUTSIDECUTPATH
 10
93.3333333000000493
 20
97.9999999999995453
 30
0.0
 11
184.5416667000000075
 21
97.9999999999995453
 31
0.0
  0
LINE
  5
BEB
  8
BACK_OUTSIDECUTPATH
 10
188.7916667000000075
 20
97.9999999999995453
 30
0.0
 11
280.0000000000001137
 21
97.9999999999996163
 31
0.0
  0
LINE
  5
BEC
  8
BACK_OUTSIDECUTPATH
 10
280.0000000000001137
 20
97.9999999999996163
 30
0.0
 11
280.0000000000001137
 21
102.9999999999996021
 31
0.0
  0
LINE
  5
BED
  8
BACK_OUTSIDECUTPATH
 10
280.0000000000001137
 20
102.9999999999996021
 30
0.0
 11
466.6666667000000075
 21
102.9999999999997016
 31
0.0
  0
LINE
  5
BEE
  8
BACK_OUTSIDECUTPATH
 10
466.6666667000000075
 20
102.9999999999997016
 30
0.0
 11
466.6666667000000075
 21
97.9999999999996732
 31
0.0
  0
LINE
  5
BEF
  8
BACK_OUTSIDECUTPATH
 10
466.6666667000000075
 20
97.9999999999996732
 30
0.0
 11
557.875
 21
97.9999999999997442
 31
0.0
  0
LINE
  5
BF0
  8
BACK_OUTSIDECUTPATH
 10
562.1249999999997726
 20
97.9999999999997442
 30
0.0
 11
653.333333299999822
 21
97.9999999999997726
 31
0.0
  0
LINE
  5
BF1
  8
BACK_OUTSIDECUTPATH
 10
653.333333299999822
 20
97.9999999999997726
 30
0.0
 11
653.333333299999822
 21
102.999999999999801
 31
0.0
  0
LINE
  5
BF2
  8
BACK_OUTSIDECUTPATH
 10
653.333333299999822
 20
102.999999999999801
 30
0.0
 11
840.0
 21
102.999999999999801
 31
0.0
  0
LINE
  5
BF3
  8
BACK_OUTSIDECUTPATH
 10
840.0
 20
102.999999999999801
 30
0.0
 11
840.0
 21
97.9999999999998863
 31
0.0
  0
LINE
  5
BF4
  8
BACK_OUTSIDECUTPATH
 10
840.0
 20
97.9999999999998863
 30
0.0
 11
931.208333299999822
 21
97.9999999999999289
 31
0.0
  0
LINE
  5
BF5
  8
BACK_OUTSIDECUTPATH
 10
935.4583332999999357
 20
97.9999999999999289
 30
0.0
 11
1026.6666666999999507
 21
97.9999999999999716
 31
0.0
  0
LINE
  5
BF6
  8
BACK_OUTSIDECUTPATH
 10
1026.6666666999999507
 20
97.9999999999999716
 30
0.0
 11
1026.6666666999999507
 21
102.9999999999999005
 31
0.0
  0
LINE
  5
BF7
  8
BACK_OUTSIDECUTPATH
 10
1026.6666666999999507
 20
102.9999999999999005
 30
0.0
 11
1120.0
 21
103.0
 31
0.0
  0
LINE
  5
BF8
  8
BACK_OUTSIDECUTPATH
 10
8.8000000000000593
 20
75.8749999999994742
 30
0.0
 11
8.8000000000000593
 21
74.3749999999994884
 31
0.0
  0
LINE
  5
BF9
  8
BACK_OUTSIDECUTPATH
 10
8.8000000000000593
 20
74.3749999999994884
 30
0.0
 11
12.2500000000000604
 21
74.3749999999994884
 31
0.0
  0
LINE
  5
BFA
  8
BACK_OUTSIDECUTPATH
 10
12.2500000000000604
 20
74.3749999999994884
 30
0.0
 11
12.2500000000000604
 21
81.6249999999994884
 31
0.0
  0
LINE
  5
BFD
  8
BACK_OUTSIDECUTPATH
 10
12.2500000000000604
 20
81.6249999999994884
 30
0.0
 11
8.800000000000054
 21
81.6249999999994884
 31
0.0
  0
LINE
  5
BFE
  8
BACK_OUTSIDECUTPATH
 10
8.800000000000054
 20
81.6249999999994884
 30
0.0
 11
8.8000000000000576
 21
80.1249999999994884
 31
0.0
  0
LINE
  5
BFF
  8
0
  6
CONTINUOUS
 10
8.8000000000000593
 20
75.8749999999994742
 30
0.0
 11
5.0000000000000604
 21
75.8749999999994742
 31
0.0
  0
LINE
  5
C00
  8
0
  6
CONTINUOUS
 10
8.8000000000000576
 20
80.1249999999994884
 30
0.0
 11
5.0000000000000577
 21
80.1249999999994884
 31
0.0
  0
LINE
  5
C01
  8
BACK_OUTSIDECUTPATH
 10
1111.2000000000000455
 20
80.1250000000000142
 30
0.0
 11
1111.2000000000000455
 21
81.6249999999999858
 31
0.0
  0
LINE
  5
C02
  8
BACK_OUTSIDECUTPATH
 10
1111.2000000000000455
 20
81.6249999999999858
 30
0.0
 11
1107.75
 21
81.6249999999999858
 31
0.0
  0
LINE
  5
C05
  8
BACK_OUTSIDECUTPATH
 10
1107.75
 20
81.6249999999999858
 30
0.0
 11
1107.75
 21
74.375
 31
0.0
  0
LINE
  5
C06
  8
BACK_OUTSIDECUTPATH
 10
1107.75
 20
74.375
 30
0.0
 11
1111.2000000000000455
 21
74.375
 31
0.0
  0
LINE
  5
C07
  8
BACK_OUTSIDECUTPATH
 10
1111.2000000000000455
 20
74.375
 30
0.0
 11
1111.2000000000000455
 21
75.875
 31
0.0
  0
LINE
  5
C08
  8
0
  6
CONTINUOUS
 10
1111.2000000000000455
 20
80.1250000000000142
 30
0.0
 11
1115.0
 21
80.1250000000000142
 31
0.0
  0
LINE
  5
C09
  8
0
  6
CONTINUOUS
 10
1111.2000000000000455
 20
75.875
 30
0.0
 11
1115.0
 21
75.875
 31
0.0
  0
LINE
  5
C0A
  8
BACK_OUTSIDECUTPATH
 10
931.208333299999822
 20
94.1999999999999744
 30
0.0
 11
929.708333299999822
 21
94.1999999999999744
 31
0.0
  0
LINE
  5
C0B
  8
BACK_OUTSIDECUTPATH
 10
929.708333299999822
 20
94.1999999999999744
 30
0.0
 11
929.708333299999822
 21
90.7499999999999289
 31
0.0
  0
LINE
  5
C0C
  8
BACK_OUTSIDECUTPATH
 10
929.708333299999822
 20
90.7499999999999289
 30
0.0
 11
936.9583332999997083
 21
90.7499999999999289
 31
0.0
  0
LINE
  5
C0F
  8
BACK_OUTSIDECUTPATH
 10
936.9583332999997083
 20
90.7499999999999289
 30
0.0
 11
936.9583332999997083
 21
94.1999999999999744
 31
0.0
  0
LINE
  5
C10
  8
BACK_OUTSIDECUTPATH
 10
936.9583332999997083
 20
94.1999999999999744
 30
0.0
 11
935.4583332999999357
 21
94.1999999999999744
 31
0.0
  0
LINE
  5
C11
  8
0
  6
CONTINUOUS
 10
931.208333299999822
 20
94.1999999999999744
 30
0.0
 11
931.208333299999822
 21
97.9999999999999289
 31
0.0
  0
LINE
  5
C12
  8
0
  6
CONTINUOUS
 10
935.4583332999999357
 20
94.1999999999999744
 30
0.0
 11
935.4583332999999357
 21
97.9999999999999289
 31
0.0
  0
LINE
  5
C13
  8
BACK_OUTSIDECUTPATH
 10
557.875
 20
94.1999999999997613
 30
0.0
 11
556.3749999999997726
 21
94.1999999999997613
 31
0.0
  0
LINE
  5
C14
  8
BACK_OUTSIDECUTPATH
 10
556.3749999999997726
 20
94.1999999999997613
 30
0.0
 11
556.3749999999997726
 21
90.7499999999997442
 31
0.0
  0
LINE
  5
C15
  8
BACK_OUTSIDECUTPATH
 10
556.3749999999997726
 20
90.7499999999997442
 30
0.0
 11
563.625
 21
90.7499999999997442
 31
0.0
  0
LINE
  5
C18
  8
BACK_OUTSIDECUTPATH
 10
563.625
 20
90.7499999999997442
 30
0.0
 11
563.625
 21
94.1999999999997613
 31
0.0
  0
LINE
  5
C19
  8
BACK_OUTSIDECUTPATH
 10
563.625
 20
94.1999999999997613
 30
0.0
 11
562.1249999999997726
 21
94.1999999999997613
 31
0.0
  0
LINE
  5
C1A
  8
0
  6
CONTINUOUS
 10
557.875
 20
94.1999999999997613
 30
0.0
 11
557.875
 21
97.9999999999997442
 31
0.0
  0
LINE
  5
C1B
  8
0
  6
CONTINUOUS
 10
562.1249999999997726
 20
94.1999999999997613
 30
0.0
 11
562.1249999999997726
 21
97.9999999999997442
 31
0.0
  0
LINE
  5
C1C
  8
BACK_OUTSIDECUTPATH
 10
184.5416667000000075
 20
94.1999999999996191
 30
0.0
 11
183.0416667000000075
 21
94.1999999999996191
 31
0.0
  0
LINE
  5
C1D
  8
BACK_OUTSIDECUTPATH
 10
183.0416667000000075
 20
94.1999999999996191
 30
0.0
 11
183.0416667000000075
 21
90.7499999999995453
 31
0.0
  0
LINE
  5
C1E
  8
BACK_OUTSIDECUTPATH
 10
183.0416667000000075
 20
90.7499999999995453
 30
0.0
 11
190.2916667000000075
 21
90.7499999999995453
 31
0.0
  0
LINE
  5
C21
  8
BACK_OUTSIDECUTPATH
 10
190.2916667000000075
 20
90.7499999999995453
 30
0.0
 11
190.2916667000000075
 21
94.1999999999996191
 31
0.0
  0
LINE
  5
C22
  8
BACK_OUTSIDECUTPATH
 10
190.2916667000000075
 20
94.1999999999996191
 30
0.0
 11
188.7916667000000075
 21
94.1999999999996191
 31
0.0
  0
LINE
  5
C23
  8
0
  6
CONTINUOUS
 10
184.5416667000000075
 20
94.1999999999996191
 30
0.0
 11
184.5416667000000075
 21
97.9999999999995453
 31
0.0
  0
LINE
  5
C24
  8
0
  6
CONTINUOUS
 10
188.7916667000000075
 20
94.1999999999996191
 30
0.0
 11
188.7916667000000075
 21
97.9999999999995453
 31
0.0
  0
LINE
  5
C25
  8
BACK_OUTSIDECUTPATH
 10
0.0000000000000665
 20
65.4999999999994884
 30
0.0
 11
0.0000000000000781
 21
40.4999999999994884
 31
0.0
  0
LINE
  5
C26
  8
BACK_OUTSIDECUTPATH
 10
0.0000000000000781
 20
40.4999999999994884
 30
0.0
 11
5.0000000000000782
 21
40.4999999999994884
 31
0.0
  0
LINE
  5
C27
  8
BACK_OUTSIDECUTPATH
 10
5.0000000000000782
 20
40.4999999999994884
 30
0.0
 11
5.0000000000000808
 21
30.1249999999994884
 31
0.0
  0
LINE
  5
C28
  8
BACK_OUTSIDECUTPATH
 10
5.0000000000000844
 20
25.8749999999994884
 30
0.0
 11
5.0000000000000879
 21
15.4999999999994902
 31
0.0
  0
LINE
  5
C29
  8
BACK_OUTSIDECUTPATH
 10
5.0000000000000879
 20
15.4999999999994902
 30
0.0
 11
0.0000000000000897
 21
15.4999999999994902
 31
0.0
  0
LINE
  5
C2A
  8
BACK_OUTSIDECUTPATH
 10
0.0000000000000897
 20
15.4999999999994902
 30
0.0
 11
0.0000000000000954
 21
2.999999999999488
 31
0.0
  0
LINE
  5
C2B
  8
BACK_OUTSIDECUTPATH
 10
1120.0
 20
3.0
 30
0.0
 11
1120.0
 21
15.5
 31
0.0
  0
LINE
  5
C2C
  8
BACK_OUTSIDECUTPATH
 10
1120.0
 20
15.5
 30
0.0
 11
1115.0
 21
15.5
 31
0.0
  0
LINE
  5
C2D
  8
BACK_OUTSIDECUTPATH
 10
1115.0
 20
15.5
 30
0.0
 11
1115.0
 21
25.875
 31
0.0
  0
LINE
  5
C2E
  8
BACK_OUTSIDECUTPATH
 10
1115.0
 20
30.125
 30
0.0
 11
1115.0
 21
40.4999999999999929
 31
0.0
  0
LINE
  5
C2F
  8
BACK_OUTSIDECUTPATH
 10
1115.0
 20
40.4999999999999929
 30
0.0
 11
1120.0
 21
40.4999999999999929
 31
0.0
  0
LINE
  5
C30
  8
BACK_OUTSIDECUTPATH
 10
1120.0
 20
40.4999999999999929
 30
0.0
 11
1120.0
 21
65.5
 31
0.0
  0
LINE
  5
C31
  8
BACK_OUTSIDECUTPATH
 10
0.0000000000000954
 20
2.999999999999488
 30
0.0
 11
93.3333333000000636
 21
2.9999999999995439
 31
0.0
  0
LINE
  5
C32
  8
BACK_OUTSIDECUTPATH
 10
93.3333333000000636
 20
2.9999999999995439
 30
0.0
 11
93.3333333000000636
 21
7.9999999999995453
 31
0.0
  0
LINE
  5
C33
  8
BACK_OUTSIDECUTPATH
 10
93.3333333000000636
 20
7.9999999999995453
 30
0.0
 11
184.5416667000000075
 21
7.999999999999571
 31
0.0
  0
LINE
  5
C34
  8
BACK_OUTSIDECUTPATH
 10
188.7916667000000075
 20
7.999999999999571
 30
0.0
 11
280.0000000000001137
 21
7.9999999999996279
 31
0.0
  0
LINE
  5
C35
  8
BACK_OUTSIDECUTPATH
 10
280.0000000000001137
 20
7.9999999999996279
 30
0.0
 11
280.0000000000001137
 21
2.9999999999996301
 31
0.0
  0
LINE
  5
C36
  8
BACK_OUTSIDECUTPATH
 10
280.0000000000001137
 20
2.9999999999996301
 30
0.0
 11
466.6666667000000075
 21
2.999999999999714
 31
0.0
  0
LINE
  5
C37
  8
BACK_OUTSIDECUTPATH
 10
466.6666667000000075
 20
2.999999999999714
 30
0.0
 11
466.6666667000000075
 21
7.999999999999714
 31
0.0
  0
LINE
  5
C38
  8
BACK_OUTSIDECUTPATH
 10
466.6666667000000075
 20
7.999999999999714
 30
0.0
 11
557.8750000000001137
 21
7.9999999999997442
 31
0.0
  0
LINE
  5
C39
  8
BACK_OUTSIDECUTPATH
 10
562.1250000000001137
 20
7.9999999999997442
 30
0.0
 11
653.3333332999999357
 21
7.999999999999801
 31
0.0
  0
LINE
  5
C3A
  8
BACK_OUTSIDECUTPATH
 10
653.3333332999999357
 20
7.999999999999801
 30
0.0
 11
653.3333332999999357
 21
2.999999999999801
 31
0.0
  0
LINE
  5
C3B
  8
BACK_OUTSIDECUTPATH
 10
653.3333332999999357
 20
2.999999999999801
 30
0.0
 11
840.0000000000002274
 21
2.999999999999885
 31
0.0
  0
LINE
  5
C3C
  8
BACK_OUTSIDECUTPATH
 10
840.0000000000002274
 20
2.999999999999885
 30
0.0
 11
840.0000000000002274
 21
7.9999999999998863
 31
0.0
  0
LINE
  5
C3D
  8
BACK_OUTSIDECUTPATH
 10
840.0000000000002274
 20
7.9999999999998863
 30
0.0
 11
931.2083333000000493
 21
7.999999999999913
 31
0.0
  0
LINE
  5
C3E
  8
BACK_OUTSIDECUTPATH
 10
935.4583332999999357
 20
7.999999999999913
 30
0.0
 11
1026.6666666999999507
 21
7.9999999999999689
 31
0.0
  0
LINE
  5
C3F
  8
BACK_OUTSIDECUTPATH
 10
1026.6666666999999507
 20
7.9999999999999689
 30
0.0
 11
1026.6666666999999507
 21
2.9999999999999711
 31
0.0
  0
LINE
  5
C40
  8
BACK_OUTSIDECUTPATH
 10
1026.6666666999999507
 20
2.9999999999999711
 30
0.0
 11
1120.0
 21
3.0
 31
0.0
  0
LINE
  5
C41
  8
BACK_OUTSIDECUTPATH
 10
8.8000000000000806
 20
30.1249999999994884
 30
0.0
 11
8.8000000000000806
 21
31.6249999999994884
 31
0.0
  0
LINE
  5
C42
  8
BACK_OUTSIDECUTPATH
 10
8.8000000000000806
 20
31.6249999999994884
 30
0.0
 11
12.2500000000000799
 21
31.6249999999994884
 31
0.0
  0
LINE
  5
C45
  8
BACK_OUTSIDECUTPATH
 10
12.2500000000000799
 20
31.6249999999994884
 30
0.0
 11
12.2500000000000799
 21
24.3749999999994884
 31
0.0
  0
LINE
  5
C46
  8
BACK_OUTSIDECUTPATH
 10
12.2500000000000799
 20
24.3749999999994884
 30
0.0
 11
8.8000000000000824
 21
24.3749999999994884
 31
0.0
  0
LINE
  5
C47
  8
BACK_OUTSIDECUTPATH
 10
8.8000000000000824
 20
24.3749999999994884
 30
0.0
 11
8.8000000000000824
 21
25.8749999999994884
 31
0.0
  0
LINE
  5
C48
  8
0
  6
CONTINUOUS
 10
8.8000000000000806
 20
30.1249999999994884
 30
0.0
 11
5.0000000000000808
 21
30.1249999999994884
 31
0.0
  0
LINE
  5
C49
  8
0
  6
CONTINUOUS
 10
8.8000000000000824
 20
25.8749999999994884
 30
0.0
 11
5.0000000000000844
 21
25.8749999999994884
 31
0.0
  0
LINE
  5
C4A
  8
BACK_OUTSIDECUTPATH
 10
1111.2000000000000455
 20
25.875
 30
0.0
 11
1111.2000000000000455
 21
24.375
 31
0.0
  0
LINE
  5
C4B
  8
BACK_OUTSIDECUTPATH
 10
1111.2000000000000455
 20
24.375
 30
0.0
 11
1107.75
 21
24.375
 31
0.0
  0
LINE
  5
C4C
  8
BACK_OUTSIDECUTPATH
 10
1107.75
 20
24.375
 30
0.0
 11
1107.75
 21
31.625
 31
0.0
  0
LINE
  5
C4F
  8
BACK_OUTSIDECUTPATH
 10
1107.75
 20
31.625
 30
0.0
 11
1111.2000000000000455
 21
31.625
 31
0.0
  0
LINE
  5
C50
  8
BACK_OUTSIDECUTPATH
 10
1111.2000000000000455
 20
31.625
 30
0.0
 11
1111.2000000000000455
 21
30.125
 31
0.0
  0
LINE
  5
C51
  8
0
  6
CONTINUOUS
 10
1111.2000000000000455
 20
25.875
 30
0.0
 11
1115.0
 21
25.875
 31
0.0
  0
LINE
  5
C52
  8
0
  6
CONTINUOUS
 10
1111.2000000000000455
 20
30.125
 30
0.0
 11
1115.0
 21
30.125
 31
0.0
  0
LINE
  5
C53
  8
BACK_OUTSIDECUTPATH
 10
931.2083333000000493
 20
11.7999999999998693
 30
0.0
 11
929.7083332999999357
 21
11.7999999999998693
 31
0.0
  0
LINE
  5
C54
  8
BACK_OUTSIDECUTPATH
 10
929.7083332999999357
 20
11.7999999999998693
 30
0.0
 11
929.7083332999999357
 21
15.2499999999999094
 31
0.0
  0
LINE
  5
C55
  8
BACK_OUTSIDECUTPATH
 10
929.7083332999999357
 20
15.2499999999999094
 30
0.0
 11
936.9583332999999357
 21
15.2499999999999094
 31
0.0
  0
LINE
  5
C58
  8
BACK_OUTSIDECUTPATH
 10
936.9583332999999357
 20
15.2499999999999094
 30
0.0
 11
936.9583332999999357
 21
11.7999999999998693
 31
0.0
  0
LINE
  5
C59
  8
BACK_OUTSIDECUTPATH
 10
936.9583332999999357
 20
11.7999999999998693
 30
0.0
 11
935.4583332999999357
 21
11.7999999999998693
 31
0.0
  0
LINE
  5
C5A
  8
0
  6
CONTINUOUS
 10
931.2083333000000493
 20
11.7999999999998693
 30
0.0
 11
931.2083333000000493
 21
7.999999999999913
 31
0.0
  0
LINE
  5
C5B
  8
0
  6
CONTINUOUS
 10
935.4583332999999357
 20
11.7999999999998693
 30
0.0
 11
935.4583332999999357
 21
7.999999999999913
 31
0.0
  0
LINE
  5
C5C
  8
BACK_OUTSIDECUTPATH
 10
557.8750000000001137
 20
11.7999999999997005
 30
0.0
 11
556.3750000000001137
 21
11.7999999999997005
 31
0.0
  0
LINE
  5
C5D
  8
BACK_OUTSIDECUTPATH
 10
556.3750000000001137
 20
11.7999999999997005
 30
0.0
 11
556.3750000000001137
 21
15.2499999999997407
 31
0.0
  0
LINE
  5
C5E
  8
BACK_OUTSIDECUTPATH
 10
556.3750000000001137
 20
15.2499999999997407
 30
0.0
 11
563.6250000000001137
 21
15.2499999999997407
 31
0.0
  0
LINE
  5
C61
  8
BACK_OUTSIDECUTPATH
 10
563.6250000000001137
 20
15.2499999999997407
 30
0.0
 11
563.6250000000001137
 21
11.7999999999997005
 31
0.0
  0
LINE
  5
C62
  8
BACK_OUTSIDECUTPATH
 10
563.6250000000001137
 20
11.7999999999997005
 30
0.0
 11
562.1250000000001137
 21
11.7999999999997005
 31
0.0
  0
LINE
  5
C63
  8
0
  6
CONTINUOUS
 10
557.8750000000001137
 20
11.7999999999997005
 30
0.0
 11
557.8750000000001137
 21
7.9999999999997442
 31
0.0
  0
LINE
  5
C64
  8
0
  6
CONTINUOUS
 10
562.1250000000001137
 20
11.7999999999997005
 30
0.0
 11
562.1250000000001137
 21
7.9999999999997442
 31
0.0
  0
LINE
  5
C65
  8
BACK_OUTSIDECUTPATH
 10
184.5416667000000075
 20
11.79999999999953
 30
0.0
 11
183.0416667000000075
 21
11.79999999999953
 31
0.0
  0
LINE
  5
C66
  8
BACK_OUTSIDECUTPATH
 10
183.0416667000000075
 20
11.79999999999953
 30
0.0
 11
183.0416667000000075
 21
15.2499999999995701
 31
0.0
  0
LINE
  5
C67
  8
BACK_OUTSIDECUTPATH
 10
183.0416667000000075
 20
15.2499999999995701
 30
0.0
 11
190.2916667000000075
 21
15.2499999999995701
 31
0.0
  0
LINE
  5
C6A
  8
BACK_OUTSIDECUTPATH
 10
190.2916667000000075
 20
15.2499999999995701
 30
0.0
 11
190.2916667000000075
 21
11.79999999999953
 31
0.0
  0
LINE
  5
C6B
  8
BACK_OUTSIDECUTPATH
 10
190.2916667000000075
 20
11.79999999999953
 30
0.0
 11
188.7916667000000075
 21
11.79999999999953
 31
0.0
  0
LINE
  5
C6C
  8
0
  6
CONTINUOUS
 10
184.5416667000000075
 20
11.79999999999953
 30
0.0
 11
184.5416667000000075
 21
7.999999999999571
 31
0.0
  0
LINE
  5
C6D
  8
0
  6
CONTINUOUS
 10
188.7916667000000075
 20
11.79999999999953
 30
0.0
 11
188.7916667000000075
 21
7.999999999999571
 31
0.0
  0
LINE
  5
C7C
  8
BACK_OUTSIDECUTPATH
 10
1142.875
 20
114.7999999999998977
 30
0.0
 11
1141.375
 21
114.7999999999998977
 31
0.0
  0
LINE
  5
C7D
  8
BACK_OUTSIDECUTPATH
 10
1141.375
 20
114.7999999999998977
 30
0.0
 11
1141.375
 21
118.25
 31
0.0
  0
LINE
  5
C7E
  8
BACK_OUTSIDECUTPATH
 10
1141.375
 20
118.25
 30
0.0
 11
1148.625
 21
118.25
 31
0.0
  0
LINE
  5
C81
  8
BACK_OUTSIDECUTPATH
 10
1148.625
 20
118.25
 30
0.0
 11
1148.625
 21
114.7999999999998977
 31
0.0
  0
LINE
  5
C82
  8
BACK_OUTSIDECUTPATH
 10
1148.625
 20
114.7999999999998977
 30
0.0
 11
1147.125
 21
114.7999999999998977
 31
0.0
  0
LINE
  5
C83
  8
0
  6
CONTINUOUS
 10
1142.875
 20
114.7999999999998977
 30
0.0
 11
1142.875
 21
111.0
 31
0.0
  0
LINE
  5
C84
  8
0
  6
CONTINUOUS
 10
1147.125
 20
114.7999999999998977
 30
0.0
 11
1147.125
 21
111.0
 31
0.0
  0
LINE
  5
C92
  8
BACK_OUTSIDECUTPATH
 10
1142.875
 20
11.7999999999999492
 30
0.0
 11
1141.375
 21
11.7999999999999492
 31
0.0
  0
LINE
  5
C93
  8
BACK_OUTSIDECUTPATH
 10
1141.375
 20
11.7999999999999492
 30
0.0
 11
1141.375
 21
15.25
 31
0.0
  0
LINE
  5
C94
  8
BACK_OUTSIDECUTPATH
 10
1141.375
 20
15.25
 30
0.0
 11
1148.625
 21
15.25
 31
0.0
  0
LINE
  5
C97
  8
BACK_OUTSIDECUTPATH
 10
1148.625
 20
15.25
 30
0.0
 11
1148.625
 21
11.7999999999999492
 31
0.0
  0
LINE
  5
C98
  8
BACK_OUTSIDECUTPATH
 10
1148.625
 20
11.7999999999999492
 30
0.0
 11
1147.125
 21
11.7999999999999492
 31
0.0
  0
LINE
  5
C99
  8
0
  6
CONTINUOUS
 10
1142.875
 20
11.7999999999999492
 30
0.0
 11
1142.875
 21
8.0
 31
0.0
  0
LINE
  5
C9A
  8
0
  6
CONTINUOUS
 10
1147.125
 20
11.7999999999999492
 30
0.0
 11
1147.125
 21
8.0
 31
0.0
  0
LINE
  5
C9D
  8
0
  6
CONTINUOUS
 10
1128.0
 20
206.0
 30
0.0
 11
1162.0
 21
206.0
 31
0.0
  0
LINE
  5
C9E
  8
0
  6
CONTINUOUS
 10
1128.0
 20
103.0
 30
0.0
 11
1162.0
 21
103.0
 31
0.0
  0
LINE
  5
CA0
  8
0
  6
CONTINUOUS
 10
1235.0
 20
42.0
 30
0.0
 11
1235.0
 21
8.0
 31
0.0
  0
LINE
  5
CA2
  8
0
  6
CONTINUOUS
 10
2225.0
 20
42.0
 30
0.0
 11
2225.0
 21
8.0
 31
0.0
  0
DIMENSION
  5
EF8
  8
0
  6
CONTINUOUS
  2
*D5
 10
1120.0
 20
-30.0606818246155889
 30
0.0
 11
560.0
 21
-30.0606818246155889
 31
0.0
 70
     0
 13
0.0000000000000954
 23
2.999999999999488
 33
0.0
 14
1120.0
 24
2.999999999999488
 34
0.0
1001
ACAD
1000
DSTYLE
1002
{
1070
   287
1070
     3
1070
     3
1000
mm
1070
   279
1070
     0
1002
}
  0
ENDSEC
  0
EOF
